<svg width="18" height="17" viewBox="0 0 18 17" fill="none" xmlns="http://www.w3.org/2000/svg">
<path d="M5.44995 4.79492V16.2759" stroke="white" stroke-linecap="round"/>
<path d="M7.80493 4.79492V16.2759" stroke="white" stroke-linecap="round"/>
<path d="M10.1602 4.79492V16.2759" stroke="white" stroke-linecap="round"/>
<path d="M12.5149 4.79492V16.2759" stroke="white" stroke-linecap="round"/>
<path d="M11.9719 3.01953L5.44974 3.01953" stroke="white" stroke-linecap="round"/>
<path d="M2.90981 2.90206C3.47026 2.82936 4.44793 2.99537 3.87498 4.24104C3.15878 5.79812 0.854376 3.92968 1.50833 2.43493C2.16228 0.940187 3.5013 1.25154 5.3386 1.25154C6.80843 1.25154 8.27619 1.25154 8.82634 1.25154" stroke="white" stroke-linecap="round"/>
<path d="M15.0902 2.90206C14.5297 2.82936 13.5521 2.99537 14.125 4.24104C14.8412 5.79812 17.1456 3.92968 16.4917 2.43493C15.8377 0.940187 14.4987 1.25154 12.6614 1.25154C11.1916 1.25154 7.82804 1.25154 7.27788 1.25154" stroke="white" stroke-linecap="round"/>
</svg>
