<svg width="18" height="17" viewBox="0 0 18 17" fill="none" xmlns="http://www.w3.org/2000/svg">
<path d="M5.44995 4.58203V16.063" stroke="white" stroke-linecap="round"/>
<path d="M7.80493 4.58203V16.063" stroke="white" stroke-linecap="round"/>
<path d="M10.1602 4.58203V16.063" stroke="white" stroke-linecap="round"/>
<path d="M12.5149 4.58203V16.063" stroke="white" stroke-linecap="round"/>
<path d="M11.9719 2.80664L5.44974 2.80664" stroke="white" stroke-linecap="round"/>
<path d="M2.90981 2.68917C3.47026 2.61647 4.44793 2.78248 3.87498 4.02815C3.15878 5.58523 0.854376 3.71679 1.50833 2.22204C2.16228 0.727296 3.5013 1.03865 5.3386 1.03865C6.80843 1.03865 8.27619 1.03865 8.82634 1.03865" stroke="white" stroke-linecap="round"/>
<path d="M15.0902 2.68917C14.5297 2.61647 13.5521 2.78248 14.125 4.02815C14.8412 5.58523 17.1456 3.71679 16.4917 2.22204C15.8377 0.727296 14.4987 1.03865 12.6614 1.03865C11.1916 1.03865 7.82804 1.03865 7.27788 1.03865" stroke="white" stroke-linecap="round"/>
</svg>
