<svg width="46" height="47" viewBox="0 0 46 47" fill="none" xmlns="http://www.w3.org/2000/svg">
<rect x="0.5" y="0.431641" width="45" height="46" rx="16" fill="#0E9A8A"/>
<path d="M16.2531 29.0553C16.3063 28.3103 16.3329 27.9379 16.415 27.6684C16.7098 26.7008 17.4432 26.0701 18.4439 25.9234C18.7227 25.8826 19.1293 25.9147 19.9425 25.979C20.8584 26.0514 21.8552 26.1052 22.7965 26.1052C23.8456 26.1052 25.0172 26.0384 26.0838 25.9535C26.8834 25.8898 27.2831 25.8579 27.5707 25.902C28.5472 26.0518 29.283 26.6843 29.5778 27.6272C29.6646 27.9048 29.6913 28.2786 29.7447 29.0261V29.0261C29.8068 29.8963 29.8379 30.3315 29.7766 30.6894C29.575 31.8662 28.6949 32.8114 27.5355 33.0963C27.1828 33.1829 26.7466 33.1829 25.8741 33.1829H22.7965H20.0964C19.251 33.1829 18.8283 33.1829 18.4861 33.1015C17.3088 32.8215 16.415 31.8616 16.2195 30.6674C16.1627 30.3201 16.1929 29.8985 16.2531 29.0553V29.0553Z" stroke="white" stroke-width="1.4"/>
<path d="M19.2083 18.5573C19.2083 16.4632 20.9058 14.7656 22.9999 14.7656V14.7656C25.094 14.7656 26.7916 16.4632 26.7916 18.5573V19.099C26.7916 20.8939 25.3365 22.349 23.5416 22.349V22.349H22.4583V22.349C20.6633 22.349 19.2083 20.8939 19.2083 19.099V18.5573Z" stroke="white" stroke-width="1.4"/>
<path d="M32.2083 25.5996C32.2083 25.5996 33.8333 26.2687 33.8333 28.3079C33.8333 30.3472 32.2083 31.0163 32.2083 31.0163" stroke="white" stroke-width="1.4" stroke-linecap="round" stroke-linejoin="round"/>
<path d="M13.7916 25.5996C13.7916 25.5996 12.1666 26.1413 12.1666 28.3079C12.1666 30.4746 13.7916 31.0163 13.7916 31.0163" stroke="white" stroke-width="1.4" stroke-linecap="round" stroke-linejoin="round"/>
<path d="M29.5 15.3066C29.5 15.3066 31.6667 15.7557 31.6667 18.015C31.6667 20.2742 29.5 20.7233 29.5 20.7233" stroke="white" stroke-width="1.4" stroke-linecap="round" stroke-linejoin="round"/>
<path d="M16.5 15.3066C16.5 15.3066 14.3333 15.6687 14.3333 18.015C14.3333 20.3612 16.5 20.7233 16.5 20.7233" stroke="white" stroke-width="1.4" stroke-linecap="round" stroke-linejoin="round"/>
</svg>
