<svg width="21" height="25" viewBox="0 0 21 25" fill="none" xmlns="http://www.w3.org/2000/svg">
<path d="M17.9581 15.1986L19.1548 14.3655C19.8693 13.8677 20.1656 12.9925 19.8935 12.1869L19.4361 10.8393C19.3537 10.5951 19.3537 10.3372 19.4361 10.0938L19.8935 8.74545C20.1664 7.9398 19.8693 7.06459 19.1548 6.56758L17.9581 5.73439C17.7418 5.5837 17.5839 5.37504 17.5007 5.13124L17.0441 3.78257C16.7704 2.97764 15.9932 2.43678 15.1102 2.43678H13.6314C13.3638 2.43678 13.1075 2.35709 12.8913 2.2064L11.6953 1.37322C10.9801 0.876204 10.0196 0.875481 9.30516 1.37322L8.1084 2.2064C7.89181 2.35709 7.63626 2.43678 7.36865 2.43678H5.8895C5.00611 2.43678 4.22894 2.97764 3.95602 3.78292L3.49902 5.13124C3.41659 5.37467 3.25821 5.58333 3.04162 5.73439L1.84523 6.56722C1.13043 7.06496 0.833684 7.94016 1.1066 8.74545L1.56361 10.0934C1.6464 10.3372 1.6464 10.5951 1.56361 10.8393L1.10661 12.1872C0.833688 12.9918 1.13043 13.867 1.84523 14.3655L3.04201 15.1986C3.25821 15.3494 3.4166 15.558 3.49902 15.8015L3.70227 16.4011L1.42501 19.9966C1.20001 20.3523 1.19251 20.7764 1.40251 21.1394C1.61626 21.4987 1.99877 21.7144 2.43376 21.718L4.395 21.7216L5.30627 23.3891C5.50501 23.7592 5.88376 23.9856 6.31502 24H6.35626C6.77251 24 7.14376 23.7988 7.36126 23.4537L9.6986 19.7679C9.95488 19.8739 10.2266 19.9326 10.5 19.9326C10.7744 19.9326 11.0471 19.8736 11.3042 19.7669L13.6388 23.4537C13.8563 23.7988 14.2313 24 14.6475 24H14.685C15.1163 23.9856 15.495 23.7592 15.6938 23.3927L16.605 21.7216L18.57 21.718C19.0013 21.7144 19.3838 21.4987 19.5975 21.1394C19.8075 20.7764 19.8 20.3523 19.575 19.9966L17.2977 16.4011L17.5007 15.8022C17.5839 15.5573 17.7418 15.3486 17.9581 15.1986ZM6.70126 23.0692C6.58876 23.2453 6.40877 23.2561 6.34125 23.2597C6.27 23.2561 6.09001 23.2309 5.9925 23.0476L4.97627 21.1789C4.90877 21.0567 4.77751 20.9812 4.63125 20.9812L2.43376 20.974C2.22 20.974 2.11501 20.8339 2.0775 20.7764C2.04376 20.7153 1.97626 20.5572 2.08501 20.3811L4.02771 17.3152C4.34622 18.0262 5.06933 18.4959 5.8895 18.4959H7.36865C7.6359 18.4959 7.89181 18.5756 8.1084 18.7263L9.04226 19.3764L6.70126 23.0692ZM9.76028 18.9596L8.56314 18.1264C8.21348 17.883 7.80032 17.754 7.36865 17.754H5.8895C5.34254 17.754 4.86134 17.4193 4.69236 16.9208L4.23535 15.5725C4.10191 15.1784 3.84639 14.8415 3.49672 14.5988L2.30036 13.7656C1.8577 13.4569 1.674 12.9147 1.84296 12.4162L2.29997 11.0682C2.4334 10.6741 2.4334 10.2579 2.29997 9.86447L1.84296 8.51651C1.674 8.01769 1.8577 7.47576 2.30036 7.16749L3.49672 6.33429C3.84639 6.09086 4.10191 5.75396 4.23535 5.3602L4.69236 4.01188C4.86134 3.51342 5.34255 3.1787 5.8895 3.1787H7.36865C7.80071 3.1787 8.21423 3.0501 8.56351 2.8063L9.76029 1.97347C10.2026 1.66555 10.7971 1.66555 11.2402 1.97347L12.4362 2.8063C12.7855 3.0501 13.199 3.1787 13.6314 3.1787H15.1102C15.6575 3.1787 16.1384 3.51377 16.3077 4.01188L16.7643 5.36092C16.8989 5.75504 17.1544 6.09158 17.5029 6.33429L18.6997 7.16785C19.142 7.47541 19.3257 8.0177 19.1571 8.51616L18.6997 9.86448C18.5667 10.2579 18.5659 10.6741 18.6997 11.0686L19.1571 12.4162C19.3257 12.915 19.142 13.457 18.6997 13.7656L17.5029 14.5988C17.1544 14.8408 16.8989 15.1777 16.7643 15.5725L16.3077 16.9208C16.1384 17.4193 15.6575 17.754 15.1102 17.754H13.6314C13.1997 17.754 12.7862 17.883 12.4362 18.1264L11.2402 18.9596C10.7971 19.2668 10.2026 19.2668 9.76028 18.9596ZM18.9225 20.7764C18.885 20.8339 18.7838 20.974 18.5663 20.974L16.3688 20.9812C16.2225 20.9812 16.0912 21.0567 16.0275 21.1789L15.0075 23.0476C14.91 23.2309 14.7338 23.2561 14.6625 23.2597C14.5875 23.2561 14.4113 23.2453 14.2988 23.0692L11.9602 19.3749L12.8913 18.7263C13.1083 18.5756 13.3638 18.4959 13.6314 18.4959H15.1102C15.93 18.4959 16.6532 18.0267 16.9723 17.3152L18.915 20.3811C19.0238 20.5572 18.9563 20.7153 18.9225 20.7764Z" fill="#0E9A8A" stroke="#0E9A8A" stroke-width="0.5"/>
<path d="M9.60326 6.70761C9.97008 5.96437 11.0299 5.96436 11.3967 6.70761L12.0938 8.12007C12.2395 8.41521 12.5211 8.61978 12.8468 8.66711L14.4055 8.89361C15.2257 9.01279 15.5532 10.0208 14.9597 10.5993L13.8318 11.6987C13.5961 11.9285 13.4886 12.2595 13.5442 12.5839L13.8105 14.1363C13.9506 14.9532 13.0931 15.5762 12.3595 15.1905L10.9653 14.4575C10.674 14.3044 10.326 14.3044 10.0347 14.4575L8.64048 15.1905C7.90685 15.5762 7.04942 14.9532 7.18953 14.1363L7.45579 12.5839C7.51143 12.2595 7.40388 11.9285 7.1682 11.6987L6.04028 10.5993C5.44677 10.0208 5.77428 9.01279 6.5945 8.89361L8.15324 8.66711C8.47895 8.61978 8.76051 8.41521 8.90617 8.12007L9.60326 6.70761Z" stroke="#0E9A8A" stroke-width="1.25"/>
</svg>
