<svg width="21" height="25" viewBox="0 0 21 25" fill="none" xmlns="http://www.w3.org/2000/svg">
<path d="M17.9644 14.9877L19.1612 14.1545C19.8756 13.6568 20.172 12.7816 19.8998 11.9759L19.4424 10.6283C19.36 10.3842 19.36 10.1263 19.4424 9.88283L19.8998 8.53452C20.1727 7.72886 19.8756 6.85365 19.1612 6.35664L17.9644 5.52346C17.7482 5.37277 17.5902 5.1641 17.507 4.9203L17.0504 3.57163C16.7767 2.7667 15.9995 2.22584 15.1165 2.22584H13.6378C13.3702 2.22584 13.1139 2.14615 12.8976 1.99546L11.7016 1.16228C10.9865 0.665266 10.0259 0.664544 9.3115 1.16228L8.11475 1.99546C7.89815 2.14615 7.64261 2.22584 7.375 2.22584H5.89585C5.01246 2.22584 4.23529 2.7667 3.96237 3.57198L3.50536 4.9203C3.42294 5.16373 3.26456 5.37239 3.04796 5.52345L1.85158 6.35628C1.13678 6.85402 0.840031 7.72923 1.11295 8.53451L1.56996 9.88247C1.65274 10.1263 1.65274 10.3842 1.56996 10.6283L1.11295 11.9763C0.840035 12.7809 1.13678 13.6561 1.85158 14.1545L3.04836 14.9877C3.26456 15.1384 3.42295 15.3471 3.50537 15.5905L3.70861 16.1902L1.43135 19.7856C1.20636 20.1414 1.19885 20.5655 1.40885 20.9284C1.62261 21.2878 2.00512 21.5034 2.4401 21.507L4.40135 21.5106L5.31262 23.1781C5.51135 23.5483 5.89011 23.7747 6.32137 23.7891H6.36261C6.77886 23.7891 7.1501 23.5878 7.36761 23.2428L9.70495 19.557C9.96123 19.663 10.2329 19.7217 10.5064 19.7217C10.7808 19.7217 11.0534 19.6627 11.3106 19.5559L13.6451 23.2428C13.8626 23.5878 14.2376 23.7891 14.6539 23.7891H14.6913C15.1226 23.7747 15.5014 23.5483 15.7001 23.1817L16.6114 21.5106L18.5764 21.507C19.0076 21.5034 19.3901 21.2878 19.6039 20.9284C19.8139 20.5655 19.8064 20.1414 19.5814 19.7856L17.3041 16.1902L17.507 15.5912C17.5902 15.3464 17.7482 15.1377 17.9644 14.9877ZM6.7076 22.8583C6.59511 23.0344 6.41512 23.0452 6.3476 23.0487C6.27635 23.0452 6.09635 23.02 5.99885 22.8367L4.98262 20.968C4.91512 20.8458 4.78385 20.7703 4.6376 20.7703L2.4401 20.7631C2.22635 20.7631 2.12136 20.623 2.08385 20.5655C2.05011 20.5044 1.98261 20.3462 2.09135 20.1702L4.03406 17.1043C4.35257 17.8152 5.07568 18.285 5.89585 18.285H7.375C7.64224 18.285 7.89815 18.3647 8.11475 18.5153L9.04861 19.1655L6.7076 22.8583ZM9.76663 18.7486L8.56949 17.9155C8.21983 17.672 7.80667 17.5431 7.375 17.5431H5.89585C5.34889 17.5431 4.86769 17.2083 4.69871 16.7099L4.2417 15.3616C4.10826 14.9674 3.85274 14.6305 3.50307 14.3878L2.30671 13.5546C1.86405 13.246 1.68035 12.7037 1.84931 12.2053L2.30632 10.8573C2.43975 10.4632 2.43975 10.0469 2.30632 9.65353L1.84931 8.30557C1.68035 7.80676 1.86405 7.26482 2.30671 6.95655L3.50307 6.12335C3.85273 5.87992 4.10826 5.54303 4.2417 5.14926L4.69871 3.80095C4.86769 3.30249 5.34889 2.96776 5.89585 2.96776H7.375C7.80706 2.96776 8.22058 2.83916 8.56986 2.59536L9.76663 1.76253C10.2089 1.45462 10.8035 1.45462 11.2465 1.76253L12.4425 2.59536C12.7918 2.83917 13.2053 2.96776 13.6378 2.96776H15.1165C15.6639 2.96776 16.1447 3.30283 16.3141 3.80095L16.7707 5.14999C16.9053 5.54411 17.1608 5.88065 17.5093 6.12335L18.7061 6.95691C19.1483 7.26447 19.332 7.80676 19.1635 8.30522L18.7061 9.65354C18.573 10.0469 18.5723 10.4632 18.7061 10.8577L19.1635 12.2053C19.332 12.7041 19.1483 13.246 18.7061 13.5547L17.5093 14.3878C17.1608 14.6298 16.9053 14.9667 16.7707 15.3616L16.3141 16.7099C16.1447 17.2084 15.6639 17.5431 15.1165 17.5431H13.6378C13.2061 17.5431 12.7926 17.6721 12.4425 17.9155L11.2465 18.7487C10.8035 19.0558 10.2089 19.0558 9.76663 18.7486ZM18.9289 20.5655C18.8913 20.623 18.7901 20.7631 18.5726 20.7631L16.3751 20.7703C16.2289 20.7703 16.0976 20.8458 16.0339 20.968L15.0139 22.8367C14.9164 23.02 14.7401 23.0452 14.6688 23.0488C14.5939 23.0452 14.4176 23.0344 14.3051 22.8583L11.9666 19.164L12.8976 18.5154C13.1146 18.3647 13.3702 18.285 13.6378 18.285H15.1165C15.9364 18.285 16.6596 17.8158 16.9786 17.1043L18.9214 20.1702C19.0301 20.3462 18.9626 20.5044 18.9289 20.5655ZM8.31093 14.5277C8.0622 14.5277 7.81499 14.453 7.6033 14.3052C7.2253 14.0422 7.04159 13.6054 7.12437 13.1641L7.45059 11.4264L6.12077 10.2041C5.78359 9.89442 5.66376 9.43726 5.80816 9.01161C5.95256 8.58596 6.32981 8.28384 6.79248 8.22298L8.61787 7.98353L9.41999 6.39359C9.62336 5.99077 10.0399 5.74009 10.5068 5.74009C10.974 5.74045 11.3902 5.99077 11.5935 6.39359L12.3956 7.98353L14.2214 8.22298C14.6833 8.28384 15.0606 8.5856 15.205 9.01125C15.3494 9.4369 15.2299 9.89406 14.8935 10.2042L13.5629 11.4264L13.8895 13.1641C13.9719 13.6054 13.7882 14.0422 13.4102 14.3052C13.0322 14.569 12.5408 14.6008 12.1303 14.3886L10.5068 13.5546L8.88285 14.3886C8.70216 14.482 8.50598 14.5277 8.31093 14.5277ZM10.5068 6.48199C10.3367 6.48199 10.1911 6.56965 10.117 6.71673L9.22457 8.48562C9.16825 8.59719 9.05711 8.67471 8.92859 8.69174L6.89757 8.95836C6.72898 8.98046 6.59706 9.08587 6.54452 9.24092C6.49198 9.39597 6.53393 9.55572 6.65678 9.66874L8.1363 11.0286C8.22966 11.1145 8.27238 11.2398 8.24932 11.3619L7.88644 13.296C7.8562 13.4561 7.92046 13.609 8.05805 13.7053C8.19602 13.801 8.36726 13.8126 8.51695 13.735L10.3238 12.807C10.438 12.7475 10.5756 12.7475 10.6897 12.807L12.4962 13.735C12.6444 13.8118 12.8183 13.8017 12.9551 13.7053C13.0935 13.609 13.1577 13.4561 13.1275 13.2953L12.7646 11.3619C12.7419 11.2398 12.7843 11.1145 12.878 11.0286L14.3575 9.66874C14.48 9.55608 14.5216 9.39597 14.4686 9.24092C14.4165 9.08587 14.2842 8.98046 14.1163 8.95836L12.0849 8.69174C11.9572 8.67471 11.846 8.59756 11.7893 8.48562L10.8965 6.71673C10.8224 6.57001 10.6765 6.48235 10.5068 6.48199Z" fill="#1A8372" stroke="#1A8372" stroke-width="0.5"/>
</svg>
