<svg width="21" height="24" viewBox="0 0 21 24" fill="none" xmlns="http://www.w3.org/2000/svg">
<path d="M17.7786 14.6986L18.9754 13.8655C19.6898 13.3677 19.9862 12.4925 19.714 11.6869L19.2566 10.3393C19.1742 10.0951 19.1742 9.8372 19.2566 9.59377L19.714 8.24545C19.9869 7.4398 19.6898 6.56459 18.9754 6.06758L17.7786 5.23439C17.5624 5.0837 17.4044 4.87504 17.3212 4.63124L16.8646 3.28257C16.5909 2.47764 15.8138 1.93678 14.9308 1.93678H13.452C13.1844 1.93678 12.9281 1.85709 12.7119 1.7064L11.5158 0.873219C10.8007 0.376204 9.84015 0.375481 9.12571 0.873219L7.92896 1.7064C7.71236 1.85709 7.45682 1.93678 7.18921 1.93678H5.71006C4.82667 1.93678 4.0495 2.47764 3.77658 3.28292L3.31957 4.63124C3.23715 4.87467 3.07877 5.08333 2.86217 5.23439L1.66578 6.06722C0.950986 6.56496 0.65424 7.44016 0.927158 8.24545L1.38417 9.59341C1.46695 9.83719 1.46695 10.0951 1.38417 10.3393L0.927162 11.6872C0.654244 12.4918 0.950989 13.367 1.66579 13.8655L2.86257 14.6986C3.07877 14.8494 3.23715 15.058 3.31958 15.3015L3.52282 15.9011L1.24556 19.4966C1.02057 19.8523 1.01306 20.2764 1.22306 20.6394C1.43682 20.9987 1.81932 21.2144 2.25431 21.218L4.21556 21.2216L5.12682 22.8891C5.32556 23.2592 5.70432 23.4856 6.13558 23.5H6.17682C6.59307 23.5 6.96431 23.2988 7.18182 22.9537L9.51916 19.2679C9.77544 19.3739 10.0471 19.4326 10.3206 19.4326C10.595 19.4326 10.8676 19.3736 11.1248 19.2669L13.4593 22.9537C13.6768 23.2988 14.0518 23.5 14.4681 23.5H14.5056C14.9368 23.4856 15.3156 23.2592 15.5143 22.8927L16.4256 21.2216L18.3906 21.218C18.8218 21.2144 19.2043 20.9987 19.4181 20.6394C19.6281 20.2764 19.6206 19.8523 19.3956 19.4966L17.1183 15.9011L17.3212 15.3022C17.4044 15.0573 17.5624 14.8486 17.7786 14.6986ZM6.52181 22.5692C6.40932 22.7453 6.22933 22.7561 6.16181 22.7597C6.09056 22.7561 5.91056 22.7309 5.81306 22.5476L4.79682 20.6789C4.72933 20.5567 4.59806 20.4812 4.45181 20.4812L2.25431 20.474C2.04056 20.474 1.93557 20.3339 1.89806 20.2764C1.86432 20.2153 1.79682 20.0572 1.90556 19.8811L3.84827 16.8152C4.16678 17.5262 4.88988 17.9959 5.71006 17.9959H7.18921C7.45645 17.9959 7.71236 18.0756 7.92896 18.2263L8.86282 18.8764L6.52181 22.5692ZM9.58084 18.4596L8.3837 17.6264C8.03404 17.383 7.62088 17.254 7.18921 17.254H5.71006C5.1631 17.254 4.6819 16.9193 4.51292 16.4208L4.05591 15.0725C3.92247 14.6784 3.66695 14.3415 3.31728 14.0988L2.12091 13.2656C1.67826 12.9569 1.49456 12.4147 1.66352 11.9162L2.12052 10.5682C2.25396 10.1741 2.25396 9.75786 2.12052 9.36447L1.66352 8.01651C1.49456 7.51769 1.67826 6.97576 2.12091 6.66749L3.31728 5.83429C3.66694 5.59086 3.92247 5.25396 4.05591 4.8602L4.51292 3.51188C4.6819 3.01342 5.1631 2.6787 5.71006 2.6787H7.18921C7.62127 2.6787 8.03479 2.5501 8.38406 2.3063L9.58084 1.47347C10.0231 1.16555 10.6177 1.16555 11.0607 1.47347L12.2567 2.3063C12.606 2.5501 13.0195 2.6787 13.452 2.6787H14.9308C15.4781 2.6787 15.9589 3.01377 16.1283 3.51188L16.5849 4.86092C16.7195 5.25504 16.975 5.59158 17.3235 5.83429L18.5203 6.66785C18.9626 6.97541 19.1463 7.5177 18.9777 8.01616L18.5203 9.36448C18.3872 9.75787 18.3865 10.1741 18.5203 10.5686L18.9777 11.9162C19.1463 12.415 18.9626 12.957 18.5203 13.2656L17.3235 14.0988C16.975 14.3408 16.7195 14.6777 16.5849 15.0725L16.1283 16.4208C15.9589 16.9193 15.4781 17.254 14.9308 17.254H13.452C13.0203 17.254 12.6068 17.383 12.2567 17.6264L11.0607 18.4596C10.6177 18.7668 10.0231 18.7668 9.58084 18.4596ZM18.7431 20.2764C18.7056 20.3339 18.6043 20.474 18.3868 20.474L16.1893 20.4812C16.0431 20.4812 15.9118 20.5567 15.8481 20.6789L14.8281 22.5476C14.7306 22.7309 14.5543 22.7561 14.4831 22.7597C14.4081 22.7561 14.2318 22.7453 14.1193 22.5692L11.7808 18.8749L12.7119 18.2263C12.9288 18.0756 13.1844 17.9959 13.452 17.9959H14.9308C15.7506 17.9959 16.4738 17.5267 16.7928 16.8152L18.7356 19.8811C18.8443 20.0572 18.7768 20.2153 18.7431 20.2764Z" fill="#0F1D1A" stroke="#0F1D1A" stroke-width="0.5"/>
<path d="M9.42382 6.20761C9.79063 5.46437 10.8505 5.46436 11.2173 6.20761L11.9144 7.62007C12.06 7.91521 12.3416 8.11978 12.6673 8.16711L14.2261 8.39361C15.0463 8.51279 15.3738 9.52077 14.7803 10.0993L13.6524 11.1987C13.4167 11.4285 13.3091 11.7595 13.3648 12.0839L13.631 13.6363C13.7711 14.4532 12.9137 15.0762 12.1801 14.6905L10.7859 13.9575C10.4946 13.8044 10.1465 13.8044 9.85522 13.9575L8.46104 14.6905C7.72741 15.0762 6.86998 14.4532 7.01009 13.6363L7.27635 12.0839C7.33199 11.7595 7.22444 11.4285 6.98875 11.1987L5.86084 10.0993C5.26732 9.52077 5.59483 8.51279 6.41505 8.39361L7.97379 8.16711C8.2995 8.11978 8.58107 7.91521 8.72673 7.62007L9.42382 6.20761Z" stroke="#1A8372"/>
</svg>
