<svg width="21" height="25" viewBox="0 0 21 25" fill="none" xmlns="http://www.w3.org/2000/svg">
<path d="M17.7786 15.1986L18.9754 14.3655C19.6898 13.8677 19.9862 12.9925 19.714 12.1869L19.2566 10.8393C19.1742 10.5951 19.1742 10.3372 19.2566 10.0938L19.714 8.74545C19.9869 7.9398 19.6898 7.06459 18.9754 6.56758L17.7786 5.73439C17.5624 5.5837 17.4044 5.37504 17.3212 5.13124L16.8646 3.78257C16.5909 2.97764 15.8138 2.43678 14.9308 2.43678H13.452C13.1844 2.43678 12.9281 2.35709 12.7119 2.2064L11.5158 1.37322C10.8007 0.876204 9.84015 0.875481 9.12571 1.37322L7.92896 2.2064C7.71236 2.35709 7.45682 2.43678 7.18921 2.43678H5.71006C4.82667 2.43678 4.0495 2.97764 3.77658 3.78292L3.31957 5.13124C3.23715 5.37467 3.07877 5.58333 2.86217 5.73439L1.66578 6.56722C0.950986 7.06496 0.65424 7.94016 0.927158 8.74545L1.38417 10.0934C1.46695 10.3372 1.46695 10.5951 1.38417 10.8393L0.927162 12.1872C0.654244 12.9918 0.950989 13.867 1.66579 14.3655L2.86257 15.1986C3.07877 15.3494 3.23715 15.558 3.31958 15.8015L3.52282 16.4011L1.24556 19.9966C1.02057 20.3523 1.01306 20.7764 1.22306 21.1394C1.43682 21.4987 1.81932 21.7144 2.25431 21.718L4.21556 21.7216L5.12682 23.3891C5.32556 23.7592 5.70432 23.9856 6.13558 24H6.17682C6.59307 24 6.96431 23.7988 7.18182 23.4537L9.51916 19.7679C9.77544 19.8739 10.0471 19.9326 10.3206 19.9326C10.595 19.9326 10.8676 19.8736 11.1248 19.7669L13.4593 23.4537C13.6768 23.7988 14.0518 24 14.4681 24H14.5056C14.9368 23.9856 15.3156 23.7592 15.5143 23.3927L16.4256 21.7216L18.3906 21.718C18.8218 21.7144 19.2043 21.4987 19.4181 21.1394C19.6281 20.7764 19.6206 20.3523 19.3956 19.9966L17.1183 16.4011L17.3212 15.8022C17.4044 15.5573 17.5624 15.3486 17.7786 15.1986ZM6.52181 23.0692C6.40932 23.2453 6.22933 23.2561 6.16181 23.2597C6.09056 23.2561 5.91056 23.2309 5.81306 23.0476L4.79682 21.1789C4.72933 21.0567 4.59806 20.9812 4.45181 20.9812L2.25431 20.974C2.04056 20.974 1.93557 20.8339 1.89806 20.7764C1.86432 20.7153 1.79682 20.5572 1.90556 20.3811L3.84827 17.3152C4.16678 18.0262 4.88988 18.4959 5.71006 18.4959H7.18921C7.45645 18.4959 7.71236 18.5756 7.92896 18.7263L8.86282 19.3764L6.52181 23.0692ZM9.58084 18.9596L8.3837 18.1264C8.03404 17.883 7.62088 17.754 7.18921 17.754H5.71006C5.1631 17.754 4.6819 17.4193 4.51292 16.9208L4.05591 15.5725C3.92247 15.1784 3.66695 14.8415 3.31728 14.5988L2.12091 13.7656C1.67826 13.4569 1.49456 12.9147 1.66352 12.4162L2.12052 11.0682C2.25396 10.6741 2.25396 10.2579 2.12052 9.86447L1.66352 8.51651C1.49456 8.01769 1.67826 7.47576 2.12091 7.16749L3.31728 6.33429C3.66694 6.09086 3.92247 5.75396 4.05591 5.3602L4.51292 4.01188C4.6819 3.51342 5.1631 3.1787 5.71006 3.1787H7.18921C7.62127 3.1787 8.03479 3.0501 8.38406 2.8063L9.58084 1.97347C10.0231 1.66555 10.6177 1.66555 11.0607 1.97347L12.2567 2.8063C12.606 3.0501 13.0195 3.1787 13.452 3.1787H14.9308C15.4781 3.1787 15.9589 3.51377 16.1283 4.01188L16.5849 5.36092C16.7195 5.75504 16.975 6.09158 17.3235 6.33429L18.5203 7.16785C18.9626 7.47541 19.1463 8.0177 18.9777 8.51616L18.5203 9.86448C18.3872 10.2579 18.3865 10.6741 18.5203 11.0686L18.9777 12.4162C19.1463 12.915 18.9626 13.457 18.5203 13.7656L17.3235 14.5988C16.975 14.8408 16.7195 15.1777 16.5849 15.5725L16.1283 16.9208C15.9589 17.4193 15.4781 17.754 14.9308 17.754H13.452C13.0203 17.754 12.6068 17.883 12.2567 18.1264L11.0607 18.9596C10.6177 19.2668 10.0231 19.2668 9.58084 18.9596ZM18.7431 20.7764C18.7056 20.8339 18.6043 20.974 18.3868 20.974L16.1893 20.9812C16.0431 20.9812 15.9118 21.0567 15.8481 21.1789L14.8281 23.0476C14.7306 23.2309 14.5543 23.2561 14.4831 23.2597C14.4081 23.2561 14.2318 23.2453 14.1193 23.0692L11.7808 19.3749L12.7119 18.7263C12.9288 18.5756 13.1844 18.4959 13.452 18.4959H14.9308C15.7506 18.4959 16.4738 18.0267 16.7928 17.3152L18.7356 20.3811C18.8443 20.5572 18.7768 20.7153 18.7431 20.7764Z" fill="#0E9A8A" stroke="#0E9A8A" stroke-width="0.5"/>
<path d="M9.42382 6.70761C9.79063 5.96437 10.8505 5.96436 11.2173 6.70761L11.9144 8.12007C12.06 8.41521 12.3416 8.61978 12.6673 8.66711L14.2261 8.89361C15.0463 9.01279 15.3738 10.0208 14.7803 10.5993L13.6524 11.6987C13.4167 11.9285 13.3091 12.2595 13.3648 12.5839L13.631 14.1363C13.7711 14.9532 12.9137 15.5762 12.1801 15.1905L10.7859 14.4575C10.4946 14.3044 10.1465 14.3044 9.85522 14.4575L8.46104 15.1905C7.72741 15.5762 6.86998 14.9532 7.01009 14.1363L7.27635 12.5839C7.33199 12.2595 7.22444 11.9285 6.98875 11.6987L5.86084 10.5993C5.26732 10.0208 5.59483 9.01279 6.41505 8.89361L7.97379 8.66711C8.2995 8.61978 8.58107 8.41521 8.72673 8.12007L9.42382 6.70761Z" stroke="#0E9A8A"/>
</svg>
