<svg width="21" height="24" viewBox="0 0 21 24" fill="none" xmlns="http://www.w3.org/2000/svg">
<path d="M17.9581 14.6986L19.1548 13.8655C19.8693 13.3677 20.1656 12.4925 19.8935 11.6869L19.4361 10.3393C19.3537 10.0951 19.3537 9.8372 19.4361 9.59377L19.8935 8.24545C20.1664 7.4398 19.8693 6.56459 19.1548 6.06758L17.9581 5.23439C17.7418 5.0837 17.5839 4.87504 17.5007 4.63124L17.0441 3.28257C16.7704 2.47764 15.9932 1.93678 15.1102 1.93678H13.6314C13.3638 1.93678 13.1075 1.85709 12.8913 1.7064L11.6953 0.873219C10.9801 0.376204 10.0196 0.375481 9.30516 0.873219L8.1084 1.7064C7.89181 1.85709 7.63626 1.93678 7.36865 1.93678H5.8895C5.00611 1.93678 4.22894 2.47764 3.95602 3.28292L3.49902 4.63124C3.41659 4.87467 3.25821 5.08333 3.04162 5.23439L1.84523 6.06722C1.13043 6.56496 0.833684 7.44016 1.1066 8.24545L1.56361 9.59341C1.6464 9.83719 1.6464 10.0951 1.56361 10.3393L1.10661 11.6872C0.833688 12.4918 1.13043 13.367 1.84523 13.8655L3.04201 14.6986C3.25821 14.8494 3.4166 15.058 3.49902 15.3015L3.70227 15.9011L1.42501 19.4966C1.20001 19.8523 1.19251 20.2764 1.40251 20.6394C1.61626 20.9987 1.99877 21.2144 2.43376 21.218L4.395 21.2216L5.30627 22.8891C5.50501 23.2592 5.88376 23.4856 6.31502 23.5H6.35626C6.77251 23.5 7.14376 23.2988 7.36126 22.9537L9.6986 19.2679C9.95488 19.3739 10.2266 19.4326 10.5 19.4326C10.7744 19.4326 11.0471 19.3736 11.3042 19.2669L13.6388 22.9537C13.8563 23.2988 14.2313 23.5 14.6475 23.5H14.685C15.1163 23.4856 15.495 23.2592 15.6938 22.8927L16.605 21.2216L18.57 21.218C19.0012 21.2144 19.3838 20.9987 19.5975 20.6394C19.8075 20.2764 19.8 19.8523 19.575 19.4966L17.2977 15.9011L17.5007 15.3022C17.5839 15.0573 17.7418 14.8486 17.9581 14.6986ZM6.70126 22.5692C6.58876 22.7453 6.40877 22.7561 6.34125 22.7597C6.27 22.7561 6.09001 22.7309 5.9925 22.5476L4.97627 20.6789C4.90877 20.5567 4.77751 20.4812 4.63125 20.4812L2.43376 20.474C2.22 20.474 2.11501 20.3339 2.0775 20.2764C2.04376 20.2153 1.97626 20.0572 2.08501 19.8811L4.02771 16.8152C4.34622 17.5262 5.06933 17.9959 5.8895 17.9959H7.36865C7.6359 17.9959 7.89181 18.0756 8.1084 18.2263L9.04226 18.8764L6.70126 22.5692ZM9.76028 18.4596L8.56314 17.6264C8.21348 17.383 7.80032 17.254 7.36865 17.254H5.8895C5.34254 17.254 4.86134 16.9193 4.69236 16.4208L4.23535 15.0725C4.10191 14.6784 3.84639 14.3415 3.49672 14.0988L2.30036 13.2656C1.8577 12.9569 1.674 12.4147 1.84296 11.9162L2.29997 10.5682C2.4334 10.1741 2.4334 9.75786 2.29997 9.36447L1.84296 8.01651C1.674 7.51769 1.8577 6.97576 2.30036 6.66749L3.49672 5.83429C3.84639 5.59086 4.10191 5.25396 4.23535 4.8602L4.69236 3.51188C4.86134 3.01342 5.34255 2.6787 5.8895 2.6787H7.36865C7.80071 2.6787 8.21423 2.5501 8.56351 2.3063L9.76029 1.47347C10.2026 1.16555 10.7971 1.16555 11.2402 1.47347L12.4362 2.3063C12.7855 2.5501 13.199 2.6787 13.6314 2.6787H15.1102C15.6575 2.6787 16.1384 3.01377 16.3077 3.51188L16.7643 4.86092C16.8989 5.25504 17.1544 5.59158 17.5029 5.83429L18.6997 6.66785C19.142 6.97541 19.3257 7.5177 19.1571 8.01616L18.6997 9.36448C18.5667 9.75787 18.5659 10.1741 18.6997 10.5686L19.1571 11.9162C19.3257 12.415 19.142 12.957 18.6997 13.2656L17.5029 14.0988C17.1544 14.3408 16.8989 14.6777 16.7643 15.0725L16.3077 16.4208C16.1384 16.9193 15.6575 17.254 15.1102 17.254H13.6314C13.1997 17.254 12.7862 17.383 12.4362 17.6264L11.2402 18.4596C10.7971 18.7668 10.2026 18.7668 9.76028 18.4596ZM18.9225 20.2764C18.885 20.3339 18.7838 20.474 18.5663 20.474L16.3688 20.4812C16.2225 20.4812 16.0912 20.5567 16.0275 20.6789L15.0075 22.5476C14.91 22.7309 14.7338 22.7561 14.6625 22.7597C14.5875 22.7561 14.4113 22.7453 14.2988 22.5692L11.9602 18.8749L12.8913 18.2263C13.1083 18.0756 13.3638 17.9959 13.6314 17.9959H15.1102C15.93 17.9959 16.6532 17.5267 16.9723 16.8152L18.915 19.8811C19.0238 20.0572 18.9563 20.2153 18.9225 20.2764Z" fill="#0F1D1A" stroke="#0F1D1A" stroke-width="0.5"/>
<path d="M9.60326 6.20761C9.97008 5.46437 11.0299 5.46436 11.3967 6.20761L12.0938 7.62007C12.2395 7.91521 12.5211 8.11978 12.8468 8.16711L14.4055 8.39361C15.2257 8.51279 15.5532 9.52077 14.9597 10.0993L13.8318 11.1987C13.5961 11.4285 13.4886 11.7595 13.5442 12.0839L13.8105 13.6363C13.9506 14.4532 13.0931 15.0762 12.3595 14.6905L10.9653 13.9575C10.674 13.8044 10.326 13.8044 10.0347 13.9575L8.64048 14.6905C7.90685 15.0762 7.04942 14.4532 7.18953 13.6363L7.45579 12.0839C7.51143 11.7595 7.40388 11.4285 7.1682 11.1987L6.04028 10.0993C5.44677 9.52077 5.77428 8.51279 6.5945 8.39361L8.15324 8.16711C8.47895 8.11978 8.76051 7.91521 8.90617 7.62007L9.60326 6.20761Z" stroke="#1A8372" stroke-width="1.25"/>
</svg>
