<svg width="21" height="20" viewBox="0 0 21 20" fill="none" xmlns="http://www.w3.org/2000/svg">
<rect x="1.39648" y="2.625" width="18.3333" height="16.5" rx="6" stroke="#222628" stroke-width="1.4"/>
<line x1="14.93" y1="1.49102" x2="14.93" y2="3.75768" stroke="#222628" stroke-width="1.4" stroke-linecap="round"/>
<line x1="6.67998" y1="1.49102" x2="6.67998" y2="3.75768" stroke="#222628" stroke-width="1.4" stroke-linecap="round"/>
<path d="M11.2047 8.12407C11.2047 8.47845 10.9174 8.76574 10.5631 8.76574C10.2087 8.76574 9.92138 8.47845 9.92138 8.12407C9.92138 7.76969 10.2087 7.48241 10.5631 7.48241C10.9174 7.48241 11.2047 7.76969 11.2047 8.12407Z" fill="#222628"/>
<path d="M15.7882 8.12407C15.7882 8.47845 15.5009 8.76574 15.1465 8.76574C14.7922 8.76574 14.5049 8.47845 14.5049 8.12407C14.5049 7.76969 14.7922 7.48241 15.1465 7.48241C15.5009 7.48241 15.7882 7.76969 15.7882 8.12407Z" fill="#222628"/>
<path d="M6.62171 8.12407C6.62171 8.47845 6.33443 8.76574 5.98004 8.76574C5.62566 8.76574 5.33838 8.47845 5.33838 8.12407C5.33838 7.76969 5.62566 7.48241 5.98004 7.48241C6.33443 7.48241 6.62171 7.76969 6.62171 8.12407Z" fill="#222628"/>
<path d="M11.2047 11.7901C11.2047 12.1445 10.9174 12.4318 10.5631 12.4318C10.2087 12.4318 9.92138 12.1445 9.92138 11.7901C9.92138 11.4357 10.2087 11.1484 10.5631 11.1484C10.9174 11.1484 11.2047 11.4357 11.2047 11.7901Z" fill="#222628"/>
<path d="M6.62171 11.7901C6.62171 12.1445 6.33443 12.4318 5.98004 12.4318C5.62566 12.4318 5.33838 12.1445 5.33838 11.7901C5.33838 11.4357 5.62566 11.1484 5.98004 11.1484C6.33443 11.1484 6.62171 11.4357 6.62171 11.7901Z" fill="#222628"/>
<path d="M15.7882 11.7901C15.7882 12.1445 15.5009 12.4318 15.1465 12.4318C14.7922 12.4318 14.5049 12.1445 14.5049 11.7901C14.5049 11.4357 14.7922 11.1484 15.1465 11.1484C15.5009 11.1484 15.7882 11.4357 15.7882 11.7901Z" fill="#222628"/>
<path d="M15.7882 15.4581C15.7882 15.8124 15.5009 16.0997 15.1465 16.0997C14.7922 16.0997 14.5049 15.8124 14.5049 15.4581C14.5049 15.1037 14.7922 14.8164 15.1465 14.8164C15.5009 14.8164 15.7882 15.1037 15.7882 15.4581Z" fill="#222628"/>
<path d="M11.2047 15.4581C11.2047 15.8124 10.9174 16.0997 10.5631 16.0997C10.2087 16.0997 9.92138 15.8124 9.92138 15.4581C9.92138 15.1037 10.2087 14.8164 10.5631 14.8164C10.9174 14.8164 11.2047 15.1037 11.2047 15.4581Z" fill="#222628"/>
<path d="M6.62171 15.4581C6.62171 15.8124 6.33443 16.0997 5.98004 16.0997C5.62566 16.0997 5.33838 15.8124 5.33838 15.4581C5.33838 15.1037 5.62566 14.8164 5.98004 14.8164C6.33443 14.8164 6.62171 15.1037 6.62171 15.4581Z" fill="#222628"/>
</svg>
