<svg width="46" height="47" viewBox="0 0 46 47" fill="none" xmlns="http://www.w3.org/2000/svg">
<rect x="0.5" y="0.431641" width="45" height="46" rx="16" fill="#0E9A8A"/>
<path d="M23.0012 28.3223V29.9471" stroke="white" stroke-width="1.5" stroke-linecap="round" stroke-linejoin="round"/>
<path d="M23.001 20.2617V21.7739" stroke="white" stroke-width="1.5" stroke-linecap="round" stroke-linejoin="round"/>
<path d="M23 33.9046C28.6305 33.9046 32.6523 31.9098 32.6523 27.4697C32.6523 22.6435 30.2393 19.4261 25.4131 17.013L27.3114 14.5677C27.4078 14.4073 27.4601 14.2242 27.463 14.037C27.4659 13.8499 27.4192 13.6652 27.3278 13.5019C27.2363 13.3386 27.1033 13.2024 26.9422 13.107C26.7811 13.0117 26.5977 12.9606 26.4105 12.959H19.5895C19.4023 12.9606 19.2189 13.0117 19.0578 13.107C18.8967 13.2024 18.7637 13.3386 18.6722 13.5019C18.5808 13.6652 18.5341 13.8499 18.537 14.037C18.5399 14.2242 18.5922 14.4073 18.6886 14.5677L20.5869 17.0291C15.7607 19.4582 13.3477 22.6757 13.3477 27.5018C13.3477 31.9098 17.3695 33.9046 23 33.9046Z" stroke="white" stroke-width="1.5" stroke-linecap="round" stroke-linejoin="round"/>
<path d="M21.3911 27.5819C21.5874 27.8149 21.8345 27.9999 22.1133 28.1226C22.3922 28.2453 22.6954 28.3025 22.9998 28.2898C23.4651 28.3215 23.9245 28.1716 24.2815 27.8716C24.6385 27.5716 24.8653 27.1448 24.9142 26.681C24.8653 26.2173 24.6385 25.7905 24.2815 25.4905C23.9245 25.1905 23.4651 25.0406 22.9998 25.0723C22.5346 25.104 22.0752 24.9541 21.7181 24.6541C21.3611 24.3541 21.1343 23.9274 21.0854 23.4636C21.1304 22.9982 21.3561 22.569 21.7141 22.2682C22.072 21.9674 22.5337 21.819 22.9998 21.8549C23.2989 21.8366 23.5982 21.8848 23.8764 21.9961C24.1546 22.1073 24.4046 22.2789 24.6086 22.4984" stroke="white" stroke-width="1.5" stroke-linecap="round" stroke-linejoin="round"/>
</svg>
