<svg width="22" height="17" viewBox="0 0 22 17" fill="none" xmlns="http://www.w3.org/2000/svg">
<path d="M20.8128 15.9351L15.9221 6.60931C15.3995 5.75098 15.0985 5.60567 14.6842 5.54943C14.3002 5.54943 14.0588 5.61422 13.7439 5.88562M8.47142 6.02119C8.15833 5.75484 7.93226 5.44141 7.54958 5.44141C7.1669 5.44141 7.00899 5.51936 6.22365 6.77962L1.18726 15.9351" stroke="white" stroke-linecap="round" stroke-linejoin="round"/>
<path d="M18.4855 16.0118L11.9394 1.94736C11.8522 1.80127 11.7483 1.68532 11.6339 1.60619C11.5196 1.52707 11.3969 1.48633 11.2729 1.48633C11.149 1.48633 11.0263 1.52707 10.9119 1.60619C10.7975 1.68532 10.6937 1.80127 10.6064 1.94736L3.31958 16.0118C3.31958 16.0118 13.7198 16.0118 18.4855 16.0118Z" stroke="white" stroke-linecap="round" stroke-linejoin="round"/>
<path d="M13.6478 16.0096L11.278 10.6371C11.2464 10.5812 11.2088 10.537 11.1674 10.5067C11.126 10.4765 11.0816 10.4609 11.0367 10.4609C10.9918 10.4609 10.9474 10.4765 10.906 10.5067C10.8646 10.537 10.827 10.5812 10.7954 10.6371L8.15747 16.0096C8.15747 16.0096 11.9225 16.0096 13.6478 16.0096Z" stroke="white" stroke-linecap="round" stroke-linejoin="round"/>
<path d="M8.19678 6.96289L9.23071 8.1307C9.34983 8.27152 9.49243 8.34719 9.63866 8.34719C9.78489 8.34719 9.92749 8.27152 10.0466 8.1307L10.6726 7.34827C10.7943 7.19666 10.9424 7.11471 11.0946 7.11471C11.2468 7.11471 11.3949 7.19666 11.5166 7.34827L12.1426 8.1307C12.261 8.2689 12.4023 8.34306 12.547 8.34306C12.6918 8.34306 12.833 8.2689 12.9515 8.1307L13.9924 6.96289" stroke="white" stroke-linecap="round" stroke-linejoin="round"/>
</svg>
