<svg width="22" height="22" viewBox="0 0 22 22" fill="none" xmlns="http://www.w3.org/2000/svg">
<path d="M10.0853 1.91445C10.6729 1.43734 11.5146 1.43734 12.1022 1.91445L13.8238 3.31218C14.065 3.508 14.358 3.62937 14.6671 3.66145L16.8728 3.89048C17.6257 3.96866 18.2208 4.56376 18.299 5.31668L18.528 7.52238C18.5601 7.83141 18.6815 8.12441 18.8773 8.36561L20.275 10.0872C20.7521 10.6749 20.7521 11.5165 20.275 12.1042L18.8773 13.8258C18.6815 14.067 18.5601 14.36 18.528 14.669L18.299 16.8747C18.2208 17.6276 17.6257 18.2228 16.8728 18.3009L14.6671 18.53C14.358 18.562 14.065 18.6834 13.8238 18.8792L12.1022 20.277C11.5146 20.7541 10.6729 20.7541 10.0853 20.277L8.36366 18.8792C8.12246 18.6834 7.82946 18.562 7.52043 18.53L5.31472 18.3009C4.56181 18.2228 3.9667 17.6276 3.88853 16.8747L3.6595 14.669C3.62741 14.36 3.50605 14.067 3.31022 13.8258L1.9125 12.1042C1.43539 11.5165 1.43539 10.6749 1.9125 10.0872L3.31022 8.36561C3.50605 8.12441 3.62741 7.83141 3.6595 7.52238L3.88853 5.31668C3.9667 4.56376 4.56181 3.96866 5.31472 3.89048L7.52043 3.66145C7.82946 3.62937 8.12246 3.508 8.36366 3.31218L10.0853 1.91445Z" stroke="#0E9A8A" stroke-width="1.4"/>
<path d="M8.09375 11.5957C8.09375 11.5957 9.81719 13.5957 10.0938 13.5957C10.3703 13.5957 14.0938 8.0957 14.0938 8.0957" stroke="#0E9A8A" stroke-width="1.4" stroke-linecap="round"/>
</svg>
