<svg width="17" height="17" viewBox="0 0 17 17" fill="none" xmlns="http://www.w3.org/2000/svg">
<path d="M2.21582 10.0996V15.2801C2.21582 15.4328 2.27646 15.5792 2.38441 15.6871C2.49236 15.7951 2.63877 15.8557 2.79143 15.8557H14.3037C14.4563 15.8557 14.6027 15.7951 14.7107 15.6871C14.8186 15.5792 14.8793 15.4328 14.8793 15.2801V10.0996" stroke="#0E9A8A" stroke-width="1.5" stroke-linecap="round" stroke-linejoin="round"/>
<path d="M9.69824 10.0996V15.8557" stroke="#0E9A8A" stroke-width="1.5" stroke-linecap="round" stroke-linejoin="round"/>
<path d="M2.21582 11.8281H9.69877" stroke="#0E9A8A" stroke-width="1.5" stroke-linecap="round" stroke-linejoin="round"/>
<path d="M1.06543 4.91991L2.79226 0.890625H14.3045L16.0313 4.91991H1.06543Z" stroke="#0E9A8A" stroke-width="1.5" stroke-linecap="round" stroke-linejoin="round"/>
<path d="M5.95751 4.91992V6.07114C5.95751 6.68179 5.71493 7.26743 5.28314 7.69922C4.85134 8.13101 4.26571 8.37359 3.65506 8.37359H3.33272C2.72207 8.37359 2.13644 8.13101 1.70464 7.69922C1.27285 7.26743 1.03027 6.68179 1.03027 6.07114V4.91992" stroke="#0E9A8A" stroke-width="1.5" stroke-linecap="round" stroke-linejoin="round"/>
<path d="M11.1385 4.91992V6.07114C11.1385 6.68179 10.8959 7.26743 10.4641 7.69922C10.0323 8.13101 9.44671 8.37359 8.83607 8.37359H8.26045C7.64981 8.37359 7.06417 8.13101 6.63238 7.69922C6.20059 7.26743 5.95801 6.68179 5.95801 6.07114V4.91992" stroke="#0E9A8A" stroke-width="1.5" stroke-linecap="round" stroke-linejoin="round"/>
<path d="M16.0304 4.91992V6.07114C16.0304 6.68179 15.7878 7.26743 15.356 7.69922C14.9242 8.13101 14.3386 8.37359 13.7279 8.37359H13.4401C12.8295 8.37359 12.2439 8.13101 11.8121 7.69922C11.3803 7.26743 11.1377 6.68179 11.1377 6.07114V4.91992" stroke="#0E9A8A" stroke-width="1.5" stroke-linecap="round" stroke-linejoin="round"/>
</svg>
