<svg width="40" height="41" viewBox="0 0 40 41" fill="none" xmlns="http://www.w3.org/2000/svg">
<path d="M30.2383 25.0371L29.859 29.6382" stroke="#0E9A8A" stroke-linecap="round" stroke-linejoin="round"/>
<path d="M29.3662 23.1025C29.4591 21.976 30.4476 21.1381 31.5741 21.231C31.5763 21.2311 31.5771 21.2316 31.5775 21.2318C31.5783 21.2321 31.5794 21.2329 31.5805 21.2342C31.5816 21.2355 31.5821 21.2367 31.5824 21.2375C31.5825 21.2379 31.5828 21.2388 31.5826 21.241L31.3235 24.3846C31.3008 24.6598 31.0593 24.8645 30.7841 24.8418L29.5097 24.7368C29.3571 24.7242 29.2436 24.5903 29.2562 24.4377L29.3662 23.1025Z" stroke="#0E9A8A"/>
<path d="M12.3818 26.5317V25.2397L17.486 22.1172M22.9711 22.1172L27.6183 25.2397V33.3921" stroke="#0F1D1A" stroke-linecap="round" stroke-linejoin="round"/>
<path d="M17.9434 22.3281L20.282 24.4418L21.5416 23.2502M22.8013 22.0586L21.5416 23.2502M21.5416 23.2502L18.2759 26.2573V33.3977" stroke="#0F1D1A" stroke-linecap="round" stroke-linejoin="round"/>
<path d="M16.8965 12.5879V19.3144C16.8965 20.7717 18.0779 21.9531 19.5352 21.9531H21.2105C22.6678 21.9531 23.8492 20.7717 23.8492 19.3144V12.5879" stroke="#0F1D1A"/>
<path d="M17.1152 17.0954C18.2186 16.9633 20.4825 16.3222 20.7106 14.8151C20.9958 12.9311 21.2525 17.7252 23.6205 17.4103" stroke="#0F1D1A" stroke-linecap="round" stroke-linejoin="round"/>
<path d="M20.0498 26.873H20.8291" stroke="#0E9A8A" stroke-linecap="round" stroke-linejoin="round"/>
<path d="M20.0498 29.5312H20.8291" stroke="#0E9A8A" stroke-linecap="round" stroke-linejoin="round"/>
<path d="M20.0498 32.1914H20.8291" stroke="#0E9A8A" stroke-linecap="round" stroke-linejoin="round"/>
<path d="M16.893 10.6446V14.3741H23.8557V10.6446C24.1767 10.4639 24.8384 10.0186 24.9174 9.6828C25.0162 9.26306 25.2878 8.52234 24.5718 7.5841C23.9989 6.8335 22.7364 7.04066 22.1768 7.23807C21.9381 6.82668 21.2039 6.00391 20.1768 6.00391C19.1497 6.00391 18.6131 6.82668 18.4732 7.23807C17.8887 6.95819 16.5718 6.69473 15.9792 7.87988C15.3866 9.06503 16.3415 10.2168 16.893 10.6446Z" stroke="#0E9A8A" stroke-linecap="round" stroke-linejoin="round"/>
<path d="M16.959 12.5742H23.8047" stroke="#0E9A8A" stroke-linecap="round" stroke-linejoin="round"/>
<path d="M1.74316 33.3984H38.2563" stroke="#0F1D1A" stroke-linecap="round" stroke-linejoin="round"/>
<path d="M28.3021 32.7522L28.5206 30.1015C28.5448 29.8072 29.3412 29.7405 30.1593 29.808C30.9774 29.8754 31.6856 32.0753 30.6257 32.9438C29.7777 33.6385 28.7233 33.1056 28.3021 32.7522Z" stroke="black" stroke-linecap="round" stroke-linejoin="round"/>
<path d="M3.70107 29.7285C3.05981 29.7396 1.77065 29.576 1.74409 28.8331C1.71089 27.9046 2.57348 27.7387 3.70107 27.7387C4.60314 27.7387 11.3294 27.7387 14.5797 27.7387C15.2431 27.6836 16.5698 27.8252 16.5698 28.8331C16.5698 29.8411 15.2431 29.85 14.5797 29.7285" stroke="#0E9A8A" stroke-linecap="round" stroke-linejoin="round"/>
<path d="M4.16498 27.9043C4.03994 29.5403 4.78426 32.8083 9.02119 32.8083C13.4581 32.8083 14.3061 29.4331 14.1421 27.9043" stroke="#0E9A8A" stroke-linecap="round" stroke-linejoin="round"/>
<path d="M8.44206 24.8259C7.5751 24.3595 6.67918 23.5112 7.29192 21.9244C8.14185 19.7234 10.5428 19.7234 8.9921 16.7221C7.44139 13.7207 6.74147 13.2199 7.74193 10.7188" stroke="#B7E1DC" stroke-linecap="round" stroke-linejoin="round"/>
<path d="M5.1403 22.1169C4.27334 21.6505 3.37742 20.8022 3.99016 19.2155C4.84009 17.0144 7.24105 17.0144 5.69034 14.0131C4.13963 11.0117 3.43971 10.5109 4.44017 8.00977" stroke="#B7E1DC" stroke-linecap="round" stroke-linejoin="round"/>
</svg>
