<svg width="46" height="47" viewBox="0 0 46 47" fill="none" xmlns="http://www.w3.org/2000/svg">
<rect x="0.5" y="0.431641" width="45" height="46" rx="16" fill="#0E9A8A"/>
<path d="M22.9993 25.9727V34.4459" stroke="white" stroke-width="1.5" stroke-linecap="round" stroke-linejoin="round"/>
<path d="M18.7632 34.4473H27.2365" stroke="white" stroke-width="1.5" stroke-linecap="round" stroke-linejoin="round"/>
<path d="M17.0686 20.888C15.7202 20.888 14.4271 20.3524 13.4737 19.3989C12.5202 18.4455 11.9846 17.1524 11.9846 15.804V14.1094H17.9159V20.888H17.0686Z" stroke="white" stroke-width="1.5" stroke-linecap="round" stroke-linejoin="round"/>
<path d="M28.9313 20.888C30.2797 20.888 31.5728 20.3524 32.5262 19.3989C33.4796 18.4455 34.0153 17.1524 34.0153 15.804V14.1094H28.084V20.888H28.9313Z" stroke="white" stroke-width="1.5" stroke-linecap="round" stroke-linejoin="round"/>
<path d="M28.0842 20.8893C28.0842 22.2376 27.5486 23.5308 26.5951 24.4842C25.6417 25.4376 24.3486 25.9732 23.0002 25.9732C21.6519 25.9732 20.3587 25.4376 19.4053 24.4842C18.4519 23.5308 17.9163 22.2376 17.9163 20.8893V12.416H28.0842V20.8893Z" stroke="white" stroke-width="1.5" stroke-linecap="round" stroke-linejoin="round"/>
</svg>
