<svg width="26" height="25" viewBox="0 0 26 25" fill="none" xmlns="http://www.w3.org/2000/svg">
<path d="M10.8497 9.25945H10.8499V3.25949C10.8499 -0.240508 16.8498 0.259388 16.8498 3.25949V7.25945H20.8498C22.8498 7.25945 25.3498 6.25947 24.3498 9.25945C23.5498 11.6594 19.6832 11.5928 17.8498 11.2595V14.2595V23.7595H10.8499V14.2595C10.8499 14.2595 4.80844 14.2594 1.30908 10.2594C-0.337015 8.37781 2.80862 4.25937 6.80908 8.2594C7.80919 9.25941 8.34977 9.25941 10.8497 9.25945Z" stroke="#0F1D1A" stroke-width="1.5" stroke-linejoin="round"/>
<path d="M12.8088 18.7598H15.8088" stroke="#0E9A8A" stroke-linecap="round"/>
<path d="M15.8088 3.25977L18.3088 2.25977M11.8088 7.25977L9.30884 6.25977M6.30884 12.2598L5.30884 14.2598M20.8088 8.25977L21.3088 5.75977M2.80884 7.25977L1.80884 5.75977" stroke="#0E9A8A" stroke-width="1.5" stroke-linecap="round"/>
</svg>
