<svg width="26" height="26" viewBox="0 0 26 26" fill="none" xmlns="http://www.w3.org/2000/svg">
<path d="M11.2142 9.94109H11.2144V3.94113C11.2144 0.441133 17.2143 0.941029 17.2143 3.94113V7.94109H21.2143C23.2143 7.94109 25.7143 6.94111 24.7143 9.94109C23.9143 12.3411 20.0477 12.2744 18.2143 11.9411V14.9411V24.4411H11.2144V14.9411C11.2144 14.9411 5.17295 14.941 1.67358 10.941C0.027487 9.05945 3.17313 4.94101 7.17358 8.94104C8.17369 9.94105 8.71428 9.94105 11.2142 9.94109Z" stroke="#0E9A8A" stroke-width="1.5" stroke-linejoin="round"/>
<path d="M13.1733 19.4414H16.1733" stroke="#0E9A8A" stroke-linecap="round"/>
<path d="M16.1733 3.94141L18.6733 2.94141M12.1733 7.94141L9.67334 6.94141M6.67334 12.9414L5.67334 14.9414M21.1733 8.94141L21.6733 6.44141M3.17334 7.94141L2.17334 6.44141" stroke="#0E9A8A" stroke-width="1.5" stroke-linecap="round"/>
</svg>
