<svg width="26" height="25" viewBox="0 0 26 25" fill="none" xmlns="http://www.w3.org/2000/svg">
<path d="M11.0347 9.34929H11.035V3.34934C11.035 -0.150664 17.0349 0.349232 17.0349 3.34934V7.34929H21.0349C23.0349 7.34929 25.5349 6.34931 24.5349 9.34929C23.7349 11.7493 19.8682 11.6826 18.0349 11.3493V14.3493V23.8493H11.035V14.3493C11.035 14.3493 4.9935 14.3492 1.49414 10.3492C-0.151956 8.46765 2.99368 4.34921 6.99414 8.34924C7.99425 9.34925 8.53483 9.34926 11.0347 9.34929Z" stroke="#0F1D1A" stroke-linejoin="round"/>
<path d="M12.9939 18.8496H15.9939" stroke="#0E9A8A" stroke-linecap="round"/>
<path d="M15.9939 3.34961L18.4939 2.34961M11.9939 7.34961L9.4939 6.34961M6.4939 12.3496L5.4939 14.3496M20.9939 8.34961L21.4939 5.84961M2.9939 7.34961L1.9939 5.84961" stroke="#0E9A8A" stroke-linecap="round"/>
</svg>
