<svg width="26" height="24" viewBox="0 0 26 24" fill="none" xmlns="http://www.w3.org/2000/svg">
<path d="M11.0347 8.94109H11.035V2.94113C11.035 -0.558867 17.0349 -0.0589714 17.0349 2.94113V6.94109H21.0349C23.0349 6.94109 25.5349 5.94111 24.5349 8.94109C23.7349 11.3411 19.8682 11.2744 18.0349 10.9411V13.9411V23.4411H11.035V13.9411C11.035 13.9411 4.9935 13.941 1.49414 9.94104C-0.151956 8.05945 2.99368 3.94101 6.99414 7.94104C7.99425 8.94105 8.53483 8.94105 11.0347 8.94109Z" stroke="#0E9A8A" stroke-linejoin="round"/>
<path d="M12.9939 18.4414H15.9939" stroke="#0E9A8A" stroke-linecap="round"/>
<path d="M15.9939 2.94141L18.4939 1.94141M11.9939 6.94141L9.4939 5.94141M6.4939 11.9414L5.4939 13.9414M20.9939 7.94141L21.4939 5.44141M2.9939 6.94141L1.9939 5.44141" stroke="#0E9A8A" stroke-linecap="round"/>
</svg>
