<svg width="34" height="33" viewBox="0 0 34 33" fill="none" xmlns="http://www.w3.org/2000/svg">
<path d="M13.9745 13.1384C15.9851 13.1384 17.615 11.5085 17.615 9.49793C17.615 7.48733 15.9851 5.85742 13.9745 5.85742C11.9639 5.85742 10.334 7.48733 10.334 9.49793C10.334 11.5085 11.9639 13.1384 13.9745 13.1384Z" stroke="#0F1D1A" stroke-width="1.5" stroke-linecap="round" stroke-linejoin="round"/>
<path d="M15.5934 15.7428C14.5265 15.4965 13.4177 15.4946 12.3499 15.7371C11.2821 15.9797 10.283 16.4605 9.42716 17.1436C8.57136 17.8266 7.88104 18.6943 7.40782 19.6818C6.93459 20.6692 6.6907 21.7509 6.69438 22.8459V25.2729H15.5934" stroke="#0F1D1A" stroke-width="1.5" stroke-linecap="round" stroke-linejoin="round"/>
<path d="M23.1493 26.8428C22.9715 26.907 22.7769 26.907 22.5992 26.8428C21.2498 26.3082 20.0919 25.3809 19.2756 24.1808C18.4592 22.9808 18.0219 21.5633 18.0202 20.1119V17.9923C18.0131 17.8842 18.0291 17.7758 18.0672 17.6744C18.1053 17.5731 18.1647 17.481 18.2413 17.4044C18.3179 17.3278 18.41 17.2684 18.5114 17.2303C18.6128 17.1922 18.7211 17.1761 18.8292 17.1833H26.9192C27.0273 17.1761 27.1357 17.1922 27.2371 17.2303C27.3385 17.2684 27.4306 17.3278 27.5072 17.4044C27.5838 17.481 27.6431 17.5731 27.6812 17.6744C27.7194 17.7758 27.7354 17.8842 27.7282 17.9923V20.1119C27.7266 21.5633 27.2893 22.9808 26.4729 24.1808C25.6565 25.3809 24.4987 26.3082 23.1493 26.8428V26.8428Z" stroke="#0E9A8A" stroke-width="1.5" stroke-linecap="round" stroke-linejoin="round"/>
</svg>
