<svg width="25" height="25" viewBox="0 0 25 25" fill="none" xmlns="http://www.w3.org/2000/svg">
<path d="M23.9419 24.1066H23.0617C22.128 24.1066 21.2326 23.6661 20.5723 22.882C19.9121 22.098 19.5412 21.0346 19.5412 19.9258C19.5412 21.0346 19.1702 22.098 18.51 22.882C17.8498 23.6661 16.9543 24.1066 16.0206 24.1066C15.0869 24.1066 14.1914 23.6661 13.5312 22.882C12.8709 22.098 12.5 21.0346 12.5 19.9258C12.5 21.0346 12.1291 22.098 11.4688 22.882C10.8086 23.6661 9.91313 24.1066 8.97942 24.1066C8.0457 24.1066 7.15023 23.6661 6.48999 22.882C5.82975 22.098 5.45883 21.0346 5.45883 19.9258C5.45883 21.0346 5.08792 22.098 4.42768 22.882C3.76744 23.6661 2.87197 24.1066 1.93825 24.1066H1.05811" stroke="#0E9A8A" stroke-width="1.5" stroke-linecap="round" stroke-linejoin="round"/>
<path d="M3.05811 19.6387C3.05811 19.6387 5.98118 12.6387 12.5581 12.6387C19.135 12.6387 22.0581 19.6387 22.0581 19.6387" stroke="#0E9A8A" stroke-width="1.5" stroke-linecap="round" stroke-linejoin="round"/>
<path d="M12.0581 12.6389C12.0581 10.1389 12.5581 8.63892 14.0572 6.06836" stroke="#0E9A8A" stroke-width="1.5" stroke-linecap="round"/>
<path d="M13.5581 5.97065C12.5581 5.47065 10.0581 4.97065 8.05811 6.97065" stroke="#0E9A8A" stroke-width="1.5" stroke-linecap="round"/>
<path d="M14.0581 5.47088C13.0581 3.97089 10.5581 2.97087 8.05811 3.97083" stroke="#0E9A8A" stroke-width="1.5" stroke-linecap="round"/>
<path d="M13.5578 6.06881C14.7047 5.69306 17.1242 6.43583 17.5581 10.0688" stroke="#0E9A8A" stroke-width="1.5" stroke-linecap="round"/>
<path d="M14.0581 5.96985C14.728 4.96594 16.3992 4.09833 18.9845 6.68743" stroke="#0E9A8A" stroke-width="1.5" stroke-linecap="round"/>
<path d="M14.0582 5.9704C14.0579 4.56804 14.558 2.56811 11.5581 1.06812" stroke="#0E9A8A" stroke-width="1.5" stroke-linecap="round"/>
</svg>
