<svg width="25" height="25" viewBox="0 0 25 25" fill="none" xmlns="http://www.w3.org/2000/svg">
<path d="M23.7625 23.9874H22.8823C21.9486 23.9874 21.0531 23.547 20.3929 22.7629C19.7326 21.9789 19.3617 20.9155 19.3617 19.8066C19.3617 20.9155 18.9908 21.9789 18.3306 22.7629C17.6703 23.547 16.7749 23.9874 15.8411 23.9874C14.9074 23.9874 14.0119 23.547 13.3517 22.7629C12.6915 21.9789 12.3206 20.9155 12.3206 19.8066C12.3206 20.9155 11.9496 21.9789 11.2894 22.7629C10.6292 23.547 9.73369 23.9874 8.79997 23.9874C7.86626 23.9874 6.97078 23.547 6.31055 22.7629C5.65031 21.9789 5.27939 20.9155 5.27939 19.8066C5.27939 20.9155 4.90847 21.9789 4.24824 22.7629C3.588 23.547 2.69252 23.9874 1.75881 23.9874H0.878662" stroke="#0F1D1A" stroke-linecap="round" stroke-linejoin="round"/>
<path d="M2.87866 19.5195C2.87866 19.5195 5.80174 12.5195 12.3787 12.5195C18.9556 12.5195 21.8787 19.5195 21.8787 19.5195" stroke="#0F1D1A" stroke-linecap="round" stroke-linejoin="round"/>
<path d="M11.8787 12.5198C11.8787 10.0198 12.3787 8.51978 13.8778 5.94922" stroke="#0F1D1A" stroke-linecap="round"/>
<path d="M13.3787 5.85151C12.3787 5.35151 9.87866 4.85151 7.87866 6.85151" stroke="#0E9A8A" stroke-linecap="round"/>
<path d="M13.8787 5.35174C12.8787 3.85175 10.3787 2.85173 7.87866 3.85168" stroke="#0E9A8A" stroke-linecap="round"/>
<path d="M13.3784 5.94967C14.5252 5.57392 16.9447 6.31669 17.3787 9.94971" stroke="#0E9A8A" stroke-linecap="round"/>
<path d="M13.8787 5.85071C14.5485 4.8468 16.2198 3.97919 18.8051 6.56829" stroke="#0E9A8A" stroke-linecap="round"/>
<path d="M13.8788 5.85126C13.8784 4.4489 14.3786 2.44897 11.3787 0.948975" stroke="#0E9A8A" stroke-linecap="round"/>
</svg>
