<svg width="25" height="25" viewBox="0 0 25 25" fill="none" xmlns="http://www.w3.org/2000/svg">
<path d="M23.7625 24.1066H22.8823C21.9486 24.1066 21.0531 23.6661 20.3929 22.882C19.7326 22.098 19.3617 21.0346 19.3617 19.9258C19.3617 21.0346 18.9908 22.098 18.3306 22.882C17.6703 23.6661 16.7749 24.1066 15.8411 24.1066C14.9074 24.1066 14.0119 23.6661 13.3517 22.882C12.6915 22.098 12.3206 21.0346 12.3206 19.9258C12.3206 21.0346 11.9496 22.098 11.2894 22.882C10.6292 23.6661 9.73369 24.1066 8.79997 24.1066C7.86626 24.1066 6.97078 23.6661 6.31055 22.882C5.65031 22.098 5.27939 21.0346 5.27939 19.9258C5.27939 21.0346 4.90847 22.098 4.24824 22.882C3.588 23.6661 2.69252 24.1066 1.75881 24.1066H0.878662" stroke="#0E9A8A" stroke-linecap="round" stroke-linejoin="round"/>
<path d="M2.87866 19.6387C2.87866 19.6387 5.80174 12.6387 12.3787 12.6387C18.9556 12.6387 21.8787 19.6387 21.8787 19.6387" stroke="#0E9A8A" stroke-linecap="round" stroke-linejoin="round"/>
<path d="M11.8787 12.6389C11.8787 10.1389 12.3787 8.63892 13.8778 6.06836" stroke="#0E9A8A" stroke-linecap="round"/>
<path d="M13.3787 5.97065C12.3787 5.47065 9.87866 4.97065 7.87866 6.97065" stroke="#0E9A8A" stroke-linecap="round"/>
<path d="M13.8787 5.47088C12.8787 3.97089 10.3787 2.97087 7.87866 3.97083" stroke="#0E9A8A" stroke-linecap="round"/>
<path d="M13.3784 6.06881C14.5252 5.69306 16.9447 6.43583 17.3787 10.0688" stroke="#0E9A8A" stroke-linecap="round"/>
<path d="M13.8787 5.96985C14.5485 4.96594 16.2198 4.09833 18.8051 6.68743" stroke="#0E9A8A" stroke-linecap="round"/>
<path d="M13.8788 5.9704C13.8784 4.56804 14.3786 2.56811 11.3787 1.06812" stroke="#0E9A8A" stroke-linecap="round"/>
</svg>
