<svg width="26" height="25" viewBox="0 0 26 25" fill="none" xmlns="http://www.w3.org/2000/svg">
<path d="M24.4495 24.0226H23.5693C22.6356 24.0226 21.7401 23.5821 21.0799 22.7981C20.4197 22.014 20.0487 20.9506 20.0487 19.8418C20.0487 20.9506 19.6778 22.014 19.0176 22.7981C18.3573 23.5821 17.4619 24.0226 16.5282 24.0226C15.5944 24.0226 14.699 23.5821 14.0387 22.7981C13.3785 22.014 13.0076 20.9506 13.0076 19.8418C13.0076 20.9506 12.6367 22.014 11.9764 22.7981C11.3162 23.5821 10.4207 24.0226 9.48699 24.0226C8.55327 24.0226 7.65779 23.5821 6.99756 22.7981C6.33732 22.014 5.9664 20.9506 5.9664 19.8418C5.9664 20.9506 5.59549 22.014 4.93525 22.7981C4.27501 23.5821 3.37954 24.0226 2.44582 24.0226H1.56567" stroke="#0F1D1A" stroke-width="1.5" stroke-linecap="round" stroke-linejoin="round"/>
<path d="M3.56567 19.5547C3.56567 19.5547 6.48875 12.5547 13.0657 12.5547C19.6426 12.5547 22.5657 19.5547 22.5657 19.5547" stroke="#0F1D1A" stroke-width="1.5" stroke-linecap="round" stroke-linejoin="round"/>
<path d="M12.5657 12.5549C12.5657 10.0549 13.0657 8.55493 14.5648 5.98438" stroke="#0F1D1A" stroke-width="1.5" stroke-linecap="round"/>
<path d="M14.0657 5.88667C13.0657 5.38667 10.5657 4.88667 8.56567 6.88667" stroke="#0E9A8A" stroke-width="1.5" stroke-linecap="round"/>
<path d="M14.5657 5.3869C13.5657 3.8869 11.0657 2.88689 8.56567 3.88684" stroke="#0E9A8A" stroke-width="1.5" stroke-linecap="round"/>
<path d="M14.0654 5.98483C15.2123 5.60907 17.6317 6.35184 18.0657 9.98486" stroke="#0E9A8A" stroke-width="1.5" stroke-linecap="round"/>
<path d="M14.5657 5.88586C15.2355 4.88196 16.9068 4.01434 19.4921 6.60344" stroke="#0E9A8A" stroke-width="1.5" stroke-linecap="round"/>
<path d="M14.5658 5.88641C14.5654 4.48406 15.0656 2.48412 12.0657 0.984131" stroke="#0E9A8A" stroke-width="1.5" stroke-linecap="round"/>
</svg>
