<svg width="40" height="41" viewBox="0 0 40 41" fill="none" xmlns="http://www.w3.org/2000/svg">
<path d="M11.5586 32.9048V25.1967L16.6627 22.0742M22.1479 22.0742L26.795 25.1967V33.3491" stroke="#0F1D1A" stroke-linecap="round" stroke-linejoin="round"/>
<path d="M16.9248 21.9102L19.4589 27.334L20.7185 24.6221L21.9782 21.9102" stroke="#0E9A8A" stroke-linecap="round" stroke-linejoin="round"/>
<path d="M16.0732 13.3477V19.2726C16.0732 20.7299 17.2546 21.9113 18.7119 21.9113H20.3873C21.8446 21.9113 23.026 20.7299 23.026 19.2726V13.3477" stroke="#0F1D1A"/>
<path d="M23.0264 11.5332V11.5332C23.0264 10.154 21.9083 9.03601 20.5292 9.03601L18.5708 9.03601C17.1917 9.03601 16.0736 10.154 16.0736 11.5332V11.5332" stroke="#0E9A8A"/>
<path d="M16.0732 15.872C18.1057 15.872 19.922 14.8548 20.1501 13.3477" stroke="#0F1D1A" stroke-linecap="round" stroke-linejoin="round"/>
<path d="M2.9834 33.3555H37.6387" stroke="#0F1D1A" stroke-linecap="round" stroke-linejoin="round"/>
<rect x="16.7617" y="27.3359" width="5.37891" height="2.5625" stroke="#0E9A8A" stroke-linejoin="round"/>
<path d="M18.8379 28.6172L20.0654 28.6172" stroke="#0E9A8A" stroke-linecap="round" stroke-linejoin="round"/>
<path d="M29.5596 29.8992V20.3711" stroke="black"/>
<path d="M29.5596 20C29.5596 20 30.7598 20.9777 32.2349 20.9777C32.9539 20.9777 34.0674 20.2877 35.0199 20.0496C36.0215 19.7992 38.4544 22.8872 38.4544 22.8872C38.4544 22.8872 36.1457 23.2317 35.237 23.4649C34.2443 23.7196 33.005 24.4426 32.2349 24.4426C30.7598 24.4426 29.5596 23.4649 29.5596 23.4649V20Z" stroke="black" stroke-linejoin="round"/>
<path d="M24.8555 13.3449H14.2441L15.204 11.5352H24.0044L24.8555 13.3449Z" stroke="#0E9A8A" stroke-linecap="round" stroke-linejoin="round"/>
<path d="M7.00586 22.832L11.1836 28.8406L10.64 29.7039L3.48891 28.418" stroke="#0F1D1A" stroke-linecap="round" stroke-linejoin="round"/>
<path d="M5.88811 25.9267C6.77858 24.4806 6.80443 23.1338 6.85647 22.7359C6.11747 22.726 4.86793 22.9542 3.7533 24.7561C2.63866 26.5581 2.84431 27.951 3.34002 28.321C3.71808 28.0623 4.99765 27.3727 5.88811 25.9267Z" stroke="#0F1D1A" stroke-linecap="round" stroke-linejoin="round"/>
<path d="M4.60693 20.9712L2.98388 16.6743M6.89841 20.9712L8.80789 14.2871M2.98388 22.313L1.5459 21.2637" stroke="#DDDDDD" stroke-linecap="round" stroke-linejoin="round"/>
<path d="M28.0423 32.8089L28.2608 30.1582C28.2851 29.8638 29.0814 29.7972 29.8995 29.8646C30.7177 29.932 31.4259 32.132 30.3659 33.0004C29.5179 33.6952 28.4635 33.1622 28.0423 32.8089Z" stroke="black" stroke-linecap="round" stroke-linejoin="round"/>
<path d="M10.3112 32.8089L10.0927 30.1582C10.0684 29.8638 9.27208 29.7972 8.45397 29.8646C7.63586 29.932 6.92764 32.132 7.98763 33.0004C8.83562 33.6952 9.89001 33.1622 10.3112 32.8089Z" stroke="black" stroke-linecap="round" stroke-linejoin="round"/>
</svg>
