<svg width="1291" height="666" viewBox="0 0 1291 666" fill="none" xmlns="http://www.w3.org/2000/svg">
<path d="M1208.38 1.42889C1184.82 5.89961 1161.26 10.3703 1137.69 14.841C1105.73 20.9054 1075.93 30.6445 1044.86 39.9156C1012.06 49.701 980.542 58.1171 949.599 73.0631C926.862 84.0456 908.521 106.89 891.675 124.856C883.993 133.049 875.543 140.782 874.667 152.367C873.401 169.1 879.9 193.035 893.661 201.249C905.787 208.487 914.233 206.031 932.744 206.528C938.195 205.722 952.665 203.038 957.144 199.56C971.799 188.176 970.2 179.246 972.001 161.666C973.093 150.997 958.456 128.828 947.464 123.898C929.885 116.013 918.091 116.516 899.134 116.754C885.509 116.925 866.733 118.775 853.144 119.747C824.465 121.797 800.979 130.769 776.097 144.807C754.73 156.862 738.343 175.815 724.604 195.989C707.204 221.538 698.023 251.003 689.943 280.518C685.564 296.512 678.856 311.717 674.544 327.744C670.927 341.183 668.999 354.728 666.573 368.385C661.737 395.614 654.257 422.871 637.05 445.087C616.388 471.763 584.678 496.296 551.318 503.984C507.983 513.97 466.438 509.816 428.644 484.934C400.081 466.129 384.216 439.182 380.879 405.312C378.1 377.098 388.692 347.762 413.604 332.645C425.952 325.153 437.638 323.529 451.164 328.792C470.262 336.224 481.544 345.347 492.408 363.216C505.617 384.94 510.999 412.2 515.457 436.947C525.398 492.139 507.652 560.954 453.621 587.683C427.845 600.434 396.306 607.577 367.987 611.392C335.365 615.786 301.119 608.55 269.103 602.977C240.434 597.987 214.029 595.532 185.022 598.758C168.391 600.607 148.638 603.173 132.935 609.097C113.532 616.417 93.0774 624.819 78.3644 639.244" stroke="#EEEEEE" stroke-width="2" stroke-linecap="round" stroke-dasharray="8 8"/>
<path fill-rule="evenodd" clip-rule="evenodd" d="M224.819 595.898C226.819 595.898 233.819 590.648 233.819 584.348C233.819 578.048 229.79 574.898 224.819 574.898C219.849 574.898 215.819 578.048 215.819 584.348C215.819 590.648 222.819 595.898 224.819 595.898ZM222.269 583.148C222.269 581.74 223.411 580.598 224.819 580.598C226.228 580.598 227.369 581.74 227.369 583.148C227.369 584.557 226.228 585.698 224.819 585.698C223.411 585.698 222.269 584.557 222.269 583.148ZM224.819 579.198C222.638 579.198 220.869 580.967 220.869 583.148C220.869 585.33 222.638 587.098 224.819 587.098C227.001 587.098 228.769 585.33 228.769 583.148C228.769 580.967 227.001 579.198 224.819 579.198Z" fill="#0E9A8A" fill-opacity="0.47"/>
<path fill-rule="evenodd" clip-rule="evenodd" d="M457.819 583.898C459.819 583.898 466.819 578.648 466.819 572.348C466.819 566.048 462.79 562.898 457.819 562.898C452.849 562.898 448.819 566.048 448.819 572.348C448.819 578.648 455.819 583.898 457.819 583.898ZM455.269 571.148C455.269 569.74 456.411 568.598 457.819 568.598C459.228 568.598 460.369 569.74 460.369 571.148C460.369 572.557 459.228 573.698 457.819 573.698C456.411 573.698 455.269 572.557 455.269 571.148ZM457.819 567.198C455.638 567.198 453.869 568.967 453.869 571.148C453.869 573.33 455.638 575.098 457.819 575.098C460.001 575.098 461.769 573.33 461.769 571.148C461.769 568.967 460.001 567.198 457.819 567.198Z" fill="#0E9A8A" fill-opacity="0.47"/>
<path fill-rule="evenodd" clip-rule="evenodd" d="M925.819 207.482C927.819 207.482 934.819 202.232 934.819 195.932C934.819 189.632 930.79 186.482 925.819 186.482C920.849 186.482 916.819 189.632 916.819 195.932C916.819 202.232 923.819 207.482 925.819 207.482ZM923.269 194.732C923.269 193.324 924.411 192.182 925.819 192.182C927.228 192.182 928.369 193.324 928.369 194.732C928.369 196.141 927.228 197.282 925.819 197.282C924.411 197.282 923.269 196.141 923.269 194.732ZM925.819 190.782C923.638 190.782 921.869 192.551 921.869 194.732C921.869 196.914 923.638 198.682 925.819 198.682C928.001 198.682 929.769 196.914 929.769 194.732C929.769 192.551 928.001 190.782 925.819 190.782Z" fill="#0E9A8A" fill-opacity="0.47"/>
</svg>
