<svg width="25" height="25" viewBox="0 0 25 25" fill="none" xmlns="http://www.w3.org/2000/svg">
<rect width="25" height="25" rx="12.5" fill="#0E9A8A"/>
<path d="M12.8579 5.35203L14.6458 8.96154C14.6865 9.05315 14.7505 9.13251 14.8313 9.1917C14.9122 9.25088 15.0072 9.28784 15.1069 9.29887L19.0537 9.88359C19.168 9.89828 19.2757 9.94518 19.3643 10.0188C19.453 10.0924 19.5188 10.1898 19.5542 10.2994C19.5895 10.4091 19.593 10.5265 19.5641 10.6381C19.5352 10.7496 19.4752 10.8506 19.391 10.9293L16.5462 13.7517C16.4736 13.8196 16.4191 13.9045 16.3876 13.9987C16.3562 14.093 16.3489 14.1936 16.3662 14.2915L17.0522 18.2608C17.072 18.3749 17.0595 18.4922 17.0159 18.5995C16.9724 18.7067 16.8996 18.7996 16.8059 18.8676C16.7122 18.9355 16.6012 18.9758 16.4857 18.9839C16.3702 18.9919 16.2548 18.9673 16.1526 18.913L12.5993 17.0351C12.5083 16.9905 12.4083 16.9672 12.307 16.9672C12.2056 16.9672 12.1056 16.9905 12.0146 17.0351L8.46131 18.913C8.35908 18.9673 8.24365 18.9919 8.12816 18.9839C8.01267 18.9758 7.90174 18.9355 7.80801 18.8676C7.71428 18.7996 7.64151 18.7067 7.59797 18.5995C7.55443 18.4922 7.54188 18.3749 7.56174 18.2608L8.24766 14.2465C8.26504 14.1487 8.25769 14.048 8.22627 13.9538C8.19485 13.8595 8.14035 13.7746 8.06775 13.7067L5.18914 10.9293C5.10397 10.8485 5.04408 10.7447 5.01672 10.6305C4.98935 10.5163 4.99569 10.3966 5.03496 10.2859C5.07423 10.1752 5.14475 10.0783 5.23797 10.0069C5.3312 9.93552 5.44313 9.89268 5.56021 9.88359L9.50705 9.29887C9.60668 9.28784 9.70167 9.25088 9.78256 9.1917C9.86345 9.13251 9.92742 9.05315 9.96808 8.96154L11.756 5.35203C11.8047 5.2469 11.8824 5.1579 11.98 5.09552C12.0777 5.03314 12.1911 5 12.307 5C12.4228 5 12.5362 5.03314 12.6339 5.09552C12.7315 5.1579 12.8092 5.2469 12.8579 5.35203Z" fill="#F2CB00"/>
</svg>
