<svg width="34" height="33" viewBox="0 0 34 33" fill="none" xmlns="http://www.w3.org/2000/svg">
<path d="M16.5781 9.78711C19.4168 9.78711 22.1392 10.9148 24.1464 12.922C26.1536 14.9292 27.2812 17.6516 27.2812 20.4902V20.4902C27.2812 20.9269 27.1078 21.3458 26.799 21.6546C26.4902 21.9634 26.0713 22.1369 25.6346 22.1369H7.52163C7.08492 22.1369 6.66609 21.9634 6.35729 21.6546C6.04848 21.3458 5.875 20.9269 5.875 20.4902C5.875 17.6516 7.00265 14.9292 9.00987 12.922C11.0171 10.9148 13.7395 9.78711 16.5781 9.78711V9.78711Z" stroke="#0E9A8A" stroke-width="1.5" stroke-linecap="round" stroke-linejoin="round"/>
<path d="M16.5781 9.78636V7.31641" stroke="#0E9A8A" stroke-width="1.5" stroke-linecap="round" stroke-linejoin="round"/>
<path d="M5.875 25.4297H27.2812" stroke="#0F1D1A" stroke-width="1.5" stroke-linecap="round" stroke-linejoin="round"/>
</svg>
