<svg width="25" height="26" viewBox="0 0 25 26" fill="none" xmlns="http://www.w3.org/2000/svg">
<path d="M23.5347 17.3757L17.096 8.33006C16.9381 8.16049 16.7502 8.0259 16.5431 7.93406C16.3361 7.84221 16.1141 7.79492 15.8898 7.79492C15.6655 7.79492 15.4435 7.84221 15.2364 7.93406C15.0294 8.0259 14.8415 8.16049 14.6836 8.33006L1.44946 25.0463H23.5347" stroke="#0F1D1A" stroke-width="1.5" stroke-linecap="round" stroke-linejoin="round"/>
<path d="M8.56763 16.002L11.065 17.8111C11.3527 18.0292 11.6971 18.1465 12.0503 18.1465C12.4035 18.1465 12.7479 18.0292 13.0356 17.8111L14.5476 16.599C14.8417 16.3641 15.1994 16.2371 15.5669 16.2371C15.9345 16.2371 16.2922 16.3641 16.5863 16.599L18.0982 17.8111C18.3843 18.0252 18.7254 18.1401 19.0751 18.1401C19.4247 18.1401 19.7659 18.0252 20.0519 17.8111L22.5663 16.002" stroke="#0F1D1A" stroke-width="1.5" stroke-linecap="round" stroke-linejoin="round"/>
<path d="M5.69662 10.5749C8.04226 10.5749 9.94377 8.54998 9.94377 6.0521C9.94377 3.55422 8.04226 1.5293 5.69662 1.5293C3.35098 1.5293 1.44946 3.55422 1.44946 6.0521C1.44946 8.54998 3.35098 10.5749 5.69662 10.5749Z" stroke="#0E9A8A" stroke-width="1.5" stroke-linecap="round" stroke-linejoin="round"/>
</svg>
