<svg width="24" height="26" viewBox="0 0 24 26" fill="none" xmlns="http://www.w3.org/2000/svg">
<path d="M23.1821 17.2507L16.7434 8.20506C16.5855 8.03549 16.3976 7.9009 16.1906 7.80906C15.9836 7.71721 15.7615 7.66992 15.5373 7.66992C15.313 7.66992 15.0909 7.71721 14.8839 7.80906C14.6769 7.9009 14.489 8.03549 14.3311 8.20506L1.09692 24.9213H23.1821" stroke="#0F1D1A" stroke-linecap="round" stroke-linejoin="round"/>
<path d="M8.21509 15.877L10.7124 17.6861C11.0001 17.9042 11.3446 18.0215 11.6978 18.0215C12.051 18.0215 12.3954 17.9042 12.6831 17.6861L14.1951 16.474C14.4891 16.2391 14.8468 16.1121 15.2144 16.1121C15.582 16.1121 15.9397 16.2391 16.2337 16.474L17.7457 17.6861C18.0318 17.9002 18.3729 18.0151 18.7226 18.0151C19.0722 18.0151 19.4133 17.9002 19.6994 17.6861L22.2137 15.877" stroke="#0F1D1A" stroke-linecap="round" stroke-linejoin="round"/>
<path d="M5.34408 10.4499C7.68972 10.4499 9.59124 8.42498 9.59124 5.9271C9.59124 3.42922 7.68972 1.4043 5.34408 1.4043C2.99844 1.4043 1.09692 3.42922 1.09692 5.9271C1.09692 8.42498 2.99844 10.4499 5.34408 10.4499Z" stroke="#0E9A8A" stroke-linecap="round" stroke-linejoin="round"/>
</svg>
