<svg width="25" height="26" viewBox="0 0 25 26" fill="none" xmlns="http://www.w3.org/2000/svg">
<path d="M23.3616 17.4206L16.9229 8.37498C16.765 8.20541 16.5771 8.07082 16.37 7.97898C16.163 7.88713 15.941 7.83984 15.7167 7.83984C15.4924 7.83984 15.2704 7.88713 15.0634 7.97898C14.8563 8.07082 14.6684 8.20541 14.5105 8.37498L1.27637 25.0913H23.3616" stroke="#0E9A8A" stroke-width="1.5" stroke-linecap="round" stroke-linejoin="round"/>
<path d="M8.39453 16.0469L10.8919 17.856C11.1796 18.0741 11.524 18.1914 11.8772 18.1914C12.2304 18.1914 12.5748 18.0741 12.8625 17.856L14.3745 16.6439C14.6686 16.409 15.0263 16.2821 15.3938 16.2821C15.7614 16.2821 16.1191 16.409 16.4132 16.6439L17.9251 17.856C18.2112 18.0701 18.5523 18.185 18.902 18.185C19.2516 18.185 19.5928 18.0701 19.8788 17.856L22.3932 16.0469" stroke="#0E9A8A" stroke-width="1.5" stroke-linecap="round" stroke-linejoin="round"/>
<path d="M5.52352 10.6198C7.86916 10.6198 9.77068 8.5949 9.77068 6.09702C9.77068 3.59915 7.86916 1.57422 5.52352 1.57422C3.17788 1.57422 1.27637 3.59915 1.27637 6.09702C1.27637 8.5949 3.17788 10.6198 5.52352 10.6198Z" stroke="#0E9A8A" stroke-width="1.5" stroke-linecap="round" stroke-linejoin="round"/>
</svg>
