<svg width="24" height="25" viewBox="0 0 24 25" fill="none" xmlns="http://www.w3.org/2000/svg">
<path d="M23.1821 16.4206L16.7434 7.37498C16.5855 7.20541 16.3976 7.07082 16.1906 6.97898C15.9836 6.88713 15.7615 6.83984 15.5373 6.83984C15.313 6.83984 15.0909 6.88713 14.8839 6.97898C14.6769 7.07082 14.489 7.20541 14.3311 7.37498L1.09692 24.0913H23.1821" stroke="#0E9A8A" stroke-linecap="round" stroke-linejoin="round"/>
<path d="M8.21509 15.0469L10.7124 16.856C11.0001 17.0741 11.3446 17.1914 11.6978 17.1914C12.051 17.1914 12.3954 17.0741 12.6831 16.856L14.1951 15.6439C14.4891 15.409 14.8468 15.2821 15.2144 15.2821C15.582 15.2821 15.9397 15.409 16.2337 15.6439L17.7457 16.856C18.0318 17.0701 18.3729 17.185 18.7226 17.185C19.0722 17.185 19.4133 17.0701 19.6994 16.856L22.2137 15.0469" stroke="#0E9A8A" stroke-linecap="round" stroke-linejoin="round"/>
<path d="M5.34408 9.61983C7.68972 9.61983 9.59124 7.5949 9.59124 5.09702C9.59124 2.59915 7.68972 0.574219 5.34408 0.574219C2.99844 0.574219 1.09692 2.59915 1.09692 5.09702C1.09692 7.5949 2.99844 9.61983 5.34408 9.61983Z" stroke="#0E9A8A" stroke-linecap="round" stroke-linejoin="round"/>
</svg>
