<svg width="25" height="25" viewBox="0 0 25 25" fill="none" xmlns="http://www.w3.org/2000/svg">
<path d="M16.8628 12.8011H21.5528C21.4728 17.4711 20.5528 18.2411 17.6828 19.9411C17.3528 20.1411 17.2428 20.5611 17.4428 20.9011C17.6428 21.2311 18.0628 21.3411 18.4028 21.1411C21.7828 19.1411 22.9628 17.9211 22.9628 12.1011V6.71109C22.9628 5.00109 21.5728 3.62109 19.8728 3.62109H16.8728C15.1128 3.62109 13.7828 4.95109 13.7828 6.71109V9.71109C13.7728 11.4711 15.1028 12.8011 16.8628 12.8011Z" fill="#0E9A8A"/>
<path d="M6.04288 12.8011H10.7329C10.6529 17.4711 9.73288 18.2411 6.86288 19.9411C6.53288 20.1411 6.42288 20.5611 6.62288 20.9011C6.82288 21.2311 7.24288 21.3411 7.58288 21.1411C10.9629 19.1411 12.1429 17.9211 12.1429 12.1011V6.71109C12.1429 5.00109 10.7529 3.62109 9.05288 3.62109H6.05288C4.28288 3.62109 2.95288 4.95109 2.95288 6.71109V9.71109C2.95288 11.4711 4.28288 12.8011 6.04288 12.8011Z" fill="#0E9A8A"/>
</svg>
