<svg width="40" height="41" viewBox="0 0 40 41" fill="none" xmlns="http://www.w3.org/2000/svg">
<path d="M39.3906 12.7501C34.6386 13.8884 33.1391 14.4162 26.8423 10.8301C18.9713 6.34751 12.1005 7.56098 10.0613 11.399C8.36395 14.5937 10.6267 16.1965 13.899 17.3537M1.59668 30.2523C3.79546 30.2523 6.30752 30.3456 8.85785 30.3675M26.5058 28.1964C28.6232 27.1742 29.9847 25.6819 29.9847 23.5085C29.9847 21.7281 26.6726 20.5644 22.8796 19.6062" stroke="#DDDDDD" stroke-linecap="round" stroke-linejoin="round" stroke-dasharray="2 2"/>
<path d="M11.2471 32.1079V24.3999L16.3512 21.2773M21.8364 21.2773L26.4835 24.3999V32.5523" stroke="#0F1D1A" stroke-linecap="round" stroke-linejoin="round"/>
<path d="M16.6133 21.1133L19.1473 26.5371L20.407 23.8252L21.6667 21.1133" stroke="#0E9A8A" stroke-linecap="round" stroke-linejoin="round"/>
<path d="M15.7617 12.5508V18.4757C15.7617 19.933 16.9431 21.1144 18.4004 21.1144H20.0758C21.5331 21.1144 22.7145 19.933 22.7145 18.4757V12.5508" stroke="#0F1D1A"/>
<path d="M22.7148 12.7539V12.7539C22.7148 11.3963 21.6143 10.2958 20.2567 10.2958L18.2202 10.2958C16.8627 10.2958 15.7621 11.3963 15.7621 12.7539V12.7539" stroke="#0E9A8A"/>
<path d="M15.7617 15.0751C17.7942 15.0751 19.6105 14.0579 19.8386 12.5508" stroke="#0F1D1A" stroke-linecap="round" stroke-linejoin="round"/>
<path d="M22.3945 14.2064C21.0616 14.2064 19.8703 13.5392 19.7207 12.5508" stroke="#0F1D1A" stroke-linecap="round" stroke-linejoin="round"/>
<path d="M2.67188 32.5586H37.3271" stroke="#0F1D1A" stroke-linecap="round" stroke-linejoin="round"/>
<path d="M22.7148 12.5469H14.124" stroke="#0E9A8A" stroke-linecap="round" stroke-linejoin="round"/>
<rect x="16.4502" y="26.5391" width="5.37891" height="2.5625" stroke="#0E9A8A" stroke-linejoin="round"/>
<path d="M17.6328 27.8203H18.0391" stroke="#0E9A8A" stroke-linecap="round" stroke-linejoin="round"/>
<path d="M19.3398 27.8203L20.5674 27.8203" stroke="#0E9A8A" stroke-linecap="round" stroke-linejoin="round"/>
<path d="M35.5458 8.95924L35.2049 8.59346C35.1815 8.61526 35.1603 8.63926 35.1415 8.66512L35.5458 8.95924ZM31.8807 8.89291L32.2936 8.61103C32.2762 8.58545 32.2564 8.56154 32.2345 8.53963L31.8807 8.89291ZM33.6783 11.5266L33.2653 11.8084C33.357 11.9427 33.5082 12.0241 33.6708 12.0265C33.8334 12.0289 33.987 11.9522 34.0827 11.8207L33.6783 11.5266ZM35.8858 7.02883C35.8858 7.64655 35.6245 8.20246 35.2049 8.59346L35.8867 9.32503C36.5007 8.75279 36.8858 7.93539 36.8858 7.02883H35.8858ZM33.7476 4.89062C34.9285 4.89062 35.8858 5.84793 35.8858 7.02883H36.8858C36.8858 5.29565 35.4808 3.89062 33.7476 3.89062V4.89062ZM31.6094 7.02883C31.6094 5.84793 32.5667 4.89062 33.7476 4.89062V3.89062C32.0144 3.89062 30.6094 5.29565 30.6094 7.02883H31.6094ZM32.2345 8.53963C31.8477 8.15223 31.6094 7.61884 31.6094 7.02883H30.6094C30.6094 7.89443 30.9605 8.67897 31.5269 9.2462L32.2345 8.53963ZM34.0913 11.2447L32.2936 8.61103L31.4677 9.17479L33.2653 11.8084L34.0913 11.2447ZM35.1415 8.66512L33.274 11.2324L34.0827 11.8207L35.9502 9.25337L35.1415 8.66512Z" fill="black"/>
<circle cx="33.7465" cy="6.9193" r="1.0404" fill="#0F1D1A"/>
<path d="M5.04485 27.5374L4.70396 27.1716C4.68057 27.1934 4.65932 27.2174 4.64051 27.2432L5.04485 27.5374ZM1.3797 27.471L1.79267 27.1892C1.77521 27.1636 1.75541 27.1397 1.73352 27.1178L1.3797 27.471ZM3.17734 30.1047L2.76437 30.3866C2.85603 30.5208 3.00727 30.6022 3.16985 30.6046C3.33242 30.6071 3.48603 30.5303 3.58168 30.3988L3.17734 30.1047ZM5.38481 25.607C5.38481 26.2247 5.12352 26.7806 4.70396 27.1716L5.38574 27.9032C5.99976 27.3309 6.38481 26.5135 6.38481 25.607H5.38481ZM3.2466 23.4688C4.4275 23.4688 5.38481 24.4261 5.38481 25.607H6.38481C6.38481 23.8738 4.97979 22.4688 3.2466 22.4688V23.4688ZM1.1084 25.607C1.1084 24.4261 2.06571 23.4688 3.2466 23.4688V22.4688C1.51342 22.4688 0.108398 23.8738 0.108398 25.607H1.1084ZM1.73352 27.1178C1.34671 26.7304 1.1084 26.197 1.1084 25.607H0.108398C0.108398 26.4726 0.459508 27.2571 1.02588 27.8243L1.73352 27.1178ZM3.59031 29.8228L1.79267 27.1892L0.966731 27.7529L2.76437 30.3866L3.59031 29.8228ZM4.64051 27.2432L2.773 29.8106L3.58168 30.3988L5.44919 27.8315L4.64051 27.2432Z" fill="black"/>
<path d="M11.6171 6.87917L11.2762 6.51339C11.2528 6.53519 11.2316 6.55918 11.2128 6.58504L11.6171 6.87917ZM7.95197 6.81283L8.36494 6.53095C8.34747 6.50537 8.32767 6.48147 8.30578 6.45955L7.95197 6.81283ZM9.7496 9.44647L9.33664 9.72835C9.4283 9.86265 9.57954 9.94398 9.74211 9.94642C9.90469 9.94885 10.0583 9.87209 10.1539 9.7406L9.7496 9.44647ZM11.9571 4.94875C11.9571 5.56647 11.6958 6.12239 11.2762 6.51339L11.958 7.24495C12.572 6.67272 12.9571 5.85532 12.9571 4.94875H11.9571ZM9.81887 2.81055C10.9998 2.81055 11.9571 3.76785 11.9571 4.94875H12.9571C12.9571 3.21557 11.5521 1.81055 9.81887 1.81055V2.81055ZM7.68066 4.94875C7.68066 3.76785 8.63797 2.81055 9.81887 2.81055V1.81055C8.08569 1.81055 6.68066 3.21557 6.68066 4.94875H7.68066ZM8.30578 6.45955C7.91897 6.07215 7.68066 5.53876 7.68066 4.94875H6.68066C6.68066 5.81435 7.03177 6.5989 7.59815 7.16612L8.30578 6.45955ZM10.1626 9.16459L8.36494 6.53095L7.539 7.09471L9.33664 9.72835L10.1626 9.16459ZM11.2128 6.58504L9.34527 9.15235L10.1539 9.7406L12.0215 7.17329L11.2128 6.58504Z" fill="#DDDDDD"/>
<circle cx="3.24548" cy="25.4974" r="1.0404" fill="#0F1D1A"/>
<circle cx="9.81774" cy="4.83923" r="0.540398" fill="#DDDDDD" stroke="#DDDDDD"/>
<path d="M30.665 32.3945V26.3281" stroke="black"/>
<path d="M30.665 26.0926C30.665 26.0926 31.4292 26.7152 32.3684 26.7152C32.8262 26.7152 33.5351 26.2758 34.1415 26.1242C34.7793 25.9648 35.3037 26.4108 35.3037 26.4108V28.6169C35.3037 28.6169 34.8478 28.1495 34.2692 28.298C33.6372 28.4602 32.8587 28.9213 32.3684 28.9213C31.4292 28.9213 30.665 28.2987 30.665 28.2987V26.0926Z" stroke="black" stroke-linejoin="round"/>
</svg>
