<svg width="26" height="26" viewBox="0 0 26 26" fill="none" xmlns="http://www.w3.org/2000/svg">
<path d="M24.416 25.1769H23.5359C22.6022 25.1769 21.7067 24.7364 21.0464 23.9524C20.3862 23.1683 20.0153 22.1049 20.0153 20.9961C20.0153 22.1049 19.6444 23.1683 18.9841 23.9524C18.3239 24.7364 17.4284 25.1769 16.4947 25.1769C15.561 25.1769 14.6655 24.7364 14.0053 23.9524C13.345 23.1683 12.9741 22.1049 12.9741 20.9961C12.9741 22.1049 12.6032 23.1683 11.943 23.9524C11.2827 24.7364 10.3873 25.1769 9.45354 25.1769C8.51982 25.1769 7.62435 24.7364 6.96411 23.9524C6.30387 23.1683 5.93296 22.1049 5.93296 20.9961C5.93296 22.1049 5.56204 23.1683 4.9018 23.9524C4.24156 24.7364 3.34609 25.1769 2.41237 25.1769H1.53223" stroke="#0E9A8A" stroke-width="1.5" stroke-linecap="round" stroke-linejoin="round"/>
<path d="M24.416 15.5949H23.5359C22.6022 15.5949 21.7067 15.1544 21.0464 14.3703C20.3862 13.5863 20.0153 12.5229 20.0153 11.4141C20.0153 12.5229 19.6444 13.5863 18.9841 14.3703C18.3239 15.1544 17.4284 15.5949 16.4947 15.5949C15.561 15.5949 14.6655 15.1544 14.0053 14.3703C13.345 13.5863 12.9741 12.5229 12.9741 11.4141C12.9741 12.5229 12.6032 13.5863 11.943 14.3703C11.2827 15.1544 10.3873 15.5949 9.45354 15.5949C8.51982 15.5949 7.62435 15.1544 6.96411 14.3703C6.30387 13.5863 5.93296 12.5229 5.93296 11.4141C5.93296 12.5229 5.56204 13.5863 4.9018 14.3703C4.24156 15.1544 3.34609 15.5949 2.41237 15.5949H1.53223" stroke="#0E9A8A" stroke-width="1.5" stroke-linecap="round" stroke-linejoin="round"/>
<path d="M24.416 5.839H23.5359C22.6022 5.839 21.7067 5.39852 21.0464 4.61447C20.3862 3.83042 20.0153 2.76702 20.0153 1.6582C20.0153 2.76702 19.6444 3.83042 18.9841 4.61447C18.3239 5.39852 17.4284 5.839 16.4947 5.839C15.561 5.839 14.6655 5.39852 14.0053 4.61447C13.345 3.83042 12.9741 2.76702 12.9741 1.6582C12.9741 2.76702 12.6032 3.83042 11.943 4.61447C11.2827 5.39852 10.3873 5.839 9.45354 5.839C8.51982 5.839 7.62435 5.39852 6.96411 4.61447C6.30387 3.83042 5.93296 2.76702 5.93296 1.6582C5.93296 2.76702 5.56204 3.83042 4.9018 4.61447C4.24156 5.39852 3.34609 5.839 2.41237 5.839H1.53223" stroke="#0E9A8A" stroke-width="1.5" stroke-linecap="round" stroke-linejoin="round"/>
</svg>
