<svg width="25" height="25" viewBox="0 0 25 25" fill="none" xmlns="http://www.w3.org/2000/svg">
<path d="M24.2366 24.1769H23.3564C22.4227 24.1769 21.5272 23.7364 20.867 22.9524C20.2068 22.1683 19.8358 21.1049 19.8358 19.9961C19.8358 21.1049 19.4649 22.1683 18.8047 22.9524C18.1445 23.7364 17.249 24.1769 16.3153 24.1769C15.3815 24.1769 14.4861 23.7364 13.8258 22.9524C13.1656 22.1683 12.7947 21.1049 12.7947 19.9961C12.7947 21.1049 12.4238 22.1683 11.7635 22.9524C11.1033 23.7364 10.2078 24.1769 9.27409 24.1769C8.34038 24.1769 7.4449 23.7364 6.78467 22.9524C6.12443 22.1683 5.75351 21.1049 5.75351 19.9961C5.75351 21.1049 5.38259 22.1683 4.72236 22.9524C4.06212 23.7364 3.16665 24.1769 2.23293 24.1769H1.35278" stroke="#0E9A8A" stroke-linecap="round" stroke-linejoin="round"/>
<path d="M24.2366 14.5949H23.3564C22.4227 14.5949 21.5272 14.1544 20.867 13.3703C20.2068 12.5863 19.8358 11.5229 19.8358 10.4141C19.8358 11.5229 19.4649 12.5863 18.8047 13.3703C18.1445 14.1544 17.249 14.5949 16.3153 14.5949C15.3815 14.5949 14.4861 14.1544 13.8258 13.3703C13.1656 12.5863 12.7947 11.5229 12.7947 10.4141C12.7947 11.5229 12.4238 12.5863 11.7635 13.3703C11.1033 14.1544 10.2078 14.5949 9.27409 14.5949C8.34038 14.5949 7.4449 14.1544 6.78467 13.3703C6.12443 12.5863 5.75351 11.5229 5.75351 10.4141C5.75351 11.5229 5.38259 12.5863 4.72236 13.3703C4.06212 14.1544 3.16665 14.5949 2.23293 14.5949H1.35278" stroke="#0E9A8A" stroke-linecap="round" stroke-linejoin="round"/>
<path d="M24.2366 4.839H23.3564C22.4227 4.839 21.5272 4.39852 20.867 3.61447C20.2068 2.83042 19.8358 1.76702 19.8358 0.658203C19.8358 1.76702 19.4649 2.83042 18.8047 3.61447C18.1445 4.39852 17.249 4.839 16.3153 4.839C15.3815 4.839 14.4861 4.39852 13.8258 3.61447C13.1656 2.83042 12.7947 1.76702 12.7947 0.658203C12.7947 1.76702 12.4238 2.83042 11.7635 3.61447C11.1033 4.39852 10.2078 4.839 9.27409 4.839C8.34038 4.839 7.4449 4.39852 6.78467 3.61447C6.12443 2.83042 5.75351 1.76702 5.75351 0.658203C5.75351 1.76702 5.38259 2.83042 4.72236 3.61447C4.06212 4.39852 3.16665 4.839 2.23293 4.839H1.35278" stroke="#0E9A8A" stroke-linecap="round" stroke-linejoin="round"/>
</svg>
