<svg width="16" height="14" viewBox="0 0 16 14" fill="none" xmlns="http://www.w3.org/2000/svg">
<path d="M14.6961 13.0724H14.1536C13.5781 13.0724 13.0261 12.8437 12.6192 12.4368C12.2122 12.0298 11.9836 11.4779 11.9836 10.9023C11.9836 11.4779 11.755 12.0298 11.348 12.4368C10.9411 12.8437 10.3891 13.0724 9.8136 13.0724C9.23807 13.0724 8.68612 12.8437 8.27917 12.4368C7.87221 12.0298 7.64359 11.4779 7.64359 10.9023C7.64359 11.4779 7.41496 12.0298 7.00801 12.4368C6.60105 12.8437 6.0491 13.0724 5.47358 13.0724C4.89806 13.0724 4.34611 12.8437 3.93915 12.4368C3.5322 12.0298 3.30357 11.4779 3.30357 10.9023C3.30357 11.4779 3.07495 12.0298 2.66799 12.4368C2.26104 12.8437 1.70909 13.0724 1.13357 13.0724H0.591064" stroke="white" stroke-linecap="round" stroke-linejoin="round"/>
<path d="M14.6961 8.09774H14.1536C13.5781 8.09774 13.0261 7.86912 12.6192 7.46216C12.2122 7.05521 11.9836 6.50326 11.9836 5.92773C11.9836 6.50326 11.755 7.05521 11.348 7.46216C10.9411 7.86912 10.3891 8.09774 9.8136 8.09774C9.23807 8.09774 8.68612 7.86912 8.27917 7.46216C7.87221 7.05521 7.64359 6.50326 7.64359 5.92773C7.64359 6.50326 7.41496 7.05521 7.00801 7.46216C6.60105 7.86912 6.0491 8.09774 5.47358 8.09774C4.89806 8.09774 4.34611 7.86912 3.93915 7.46216C3.5322 7.05521 3.30357 6.50326 3.30357 5.92773C3.30357 6.50326 3.07495 7.05521 2.66799 7.46216C2.26104 7.86912 1.70909 8.09774 1.13357 8.09774H0.591064" stroke="white" stroke-linecap="round" stroke-linejoin="round"/>
<path d="M14.6961 3.03524H14.1536C13.5781 3.03524 13.0261 2.80662 12.6192 2.39966C12.2122 1.99271 11.9836 1.44076 11.9836 0.865234C11.9836 1.44076 11.755 1.99271 11.348 2.39966C10.9411 2.80662 10.3891 3.03524 9.8136 3.03524C9.23807 3.03524 8.68612 2.80662 8.27917 2.39966C7.87221 1.99271 7.64359 1.44076 7.64359 0.865234C7.64359 1.44076 7.41496 1.99271 7.00801 2.39966C6.60105 2.80662 6.0491 3.03524 5.47358 3.03524C4.89806 3.03524 4.34611 2.80662 3.93915 2.39966C3.5322 1.99271 3.30357 1.44076 3.30357 0.865234C3.30357 1.44076 3.07495 1.99271 2.66799 2.39966C2.26104 2.80662 1.70909 3.03524 1.13357 3.03524H0.591064" stroke="white" stroke-linecap="round" stroke-linejoin="round"/>
</svg>
