<svg width="22" height="22" viewBox="0 0 22 22" fill="none" xmlns="http://www.w3.org/2000/svg">
<path d="M20.7988 20.847H20.0523C19.2603 20.847 18.5008 20.4733 17.9407 19.8083C17.3807 19.1433 17.0661 18.2413 17.0661 17.3008C17.0661 18.2413 16.7515 19.1433 16.1915 19.8083C15.6315 20.4733 14.8719 20.847 14.0799 20.847C13.2879 20.847 12.5284 20.4733 11.9684 19.8083C11.4084 19.1433 11.0938 18.2413 11.0938 17.3008C11.0938 18.2413 10.7791 19.1433 10.2191 19.8083C9.6591 20.4733 8.89956 20.847 8.10757 20.847C7.31559 20.847 6.55604 20.4733 5.99603 19.8083C5.43601 19.1433 5.12139 18.2413 5.12139 17.3008C5.12139 18.2413 4.80678 19.1433 4.24676 19.8083C3.68675 20.4733 2.9272 20.847 2.13522 20.847H1.38867" stroke="#0F1D1A" stroke-linecap="round" stroke-linejoin="round"/>
<path d="M20.7988 12.72H20.0523C19.2603 12.72 18.5008 12.3464 17.9407 11.6814C17.3807 11.0163 17.0661 10.1143 17.0661 9.17383C17.0661 10.1143 16.7515 11.0163 16.1915 11.6814C15.6315 12.3464 14.8719 12.72 14.0799 12.72C13.2879 12.72 12.5284 12.3464 11.9684 11.6814C11.4084 11.0163 11.0938 10.1143 11.0938 9.17383C11.0938 10.1143 10.7791 11.0163 10.2191 11.6814C9.6591 12.3464 8.89956 12.72 8.10757 12.72C7.31559 12.72 6.55604 12.3464 5.99603 11.6814C5.43601 11.0163 5.12139 10.1143 5.12139 9.17383C5.12139 10.1143 4.80678 11.0163 4.24676 11.6814C3.68675 12.3464 2.9272 12.72 2.13522 12.72H1.38867" stroke="#0E9A8A" stroke-linecap="round" stroke-linejoin="round"/>
<path d="M20.7988 4.44461H20.0523C19.2603 4.44461 18.5008 4.071 17.9407 3.40596C17.3807 2.74092 17.0661 1.83894 17.0661 0.898438C17.0661 1.83894 16.7515 2.74092 16.1915 3.40596C15.6315 4.071 14.8719 4.44461 14.0799 4.44461C13.2879 4.44461 12.5284 4.071 11.9684 3.40596C11.4084 2.74092 11.0938 1.83894 11.0938 0.898438C11.0938 1.83894 10.7791 2.74092 10.2191 3.40596C9.6591 4.071 8.89956 4.44461 8.10757 4.44461C7.31559 4.44461 6.55604 4.071 5.99603 3.40596C5.43601 2.74092 5.12139 1.83894 5.12139 0.898438C5.12139 1.83894 4.80678 2.74092 4.24676 3.40596C3.68675 4.071 2.9272 4.44461 2.13522 4.44461H1.38867" stroke="#0F1D1A" stroke-linecap="round" stroke-linejoin="round"/>
</svg>
