<svg width="25" height="26" viewBox="0 0 25 26" fill="none" xmlns="http://www.w3.org/2000/svg">
<path d="M24.2366 24.9562H23.3564C22.4227 24.9562 21.5272 24.5157 20.867 23.7317C20.2068 22.9476 19.8358 21.8842 19.8358 20.7754C19.8358 21.8842 19.4649 22.9476 18.8047 23.7317C18.1445 24.5157 17.249 24.9562 16.3153 24.9562C15.3815 24.9562 14.4861 24.5157 13.8258 23.7317C13.1656 22.9476 12.7947 21.8842 12.7947 20.7754C12.7947 21.8842 12.4238 22.9476 11.7635 23.7317C11.1033 24.5157 10.2078 24.9562 9.27409 24.9562C8.34038 24.9562 7.4449 24.5157 6.78467 23.7317C6.12443 22.9476 5.75351 21.8842 5.75351 20.7754C5.75351 21.8842 5.38259 22.9476 4.72236 23.7317C4.06212 24.5157 3.16665 24.9562 2.23293 24.9562H1.35278" stroke="#0F1D1A" stroke-linecap="round" stroke-linejoin="round"/>
<path d="M24.2366 15.3742H23.3564C22.4227 15.3742 21.5272 14.9337 20.867 14.1496C20.2068 13.3656 19.8358 12.3022 19.8358 11.1934C19.8358 12.3022 19.4649 13.3656 18.8047 14.1496C18.1445 14.9337 17.249 15.3742 16.3153 15.3742C15.3815 15.3742 14.4861 14.9337 13.8258 14.1496C13.1656 13.3656 12.7947 12.3022 12.7947 11.1934C12.7947 12.3022 12.4238 13.3656 11.7635 14.1496C11.1033 14.9337 10.2078 15.3742 9.27409 15.3742C8.34038 15.3742 7.4449 14.9337 6.78467 14.1496C6.12443 13.3656 5.75351 12.3022 5.75351 11.1934C5.75351 12.3022 5.38259 13.3656 4.72236 14.1496C4.06212 14.9337 3.16665 15.3742 2.23293 15.3742H1.35278" stroke="#0E9A8A" stroke-linecap="round" stroke-linejoin="round"/>
<path d="M24.2366 5.61829H23.3564C22.4227 5.61829 21.5272 5.17782 20.867 4.39377C20.2068 3.60972 19.8358 2.54632 19.8358 1.4375C19.8358 2.54632 19.4649 3.60972 18.8047 4.39377C18.1445 5.17782 17.249 5.61829 16.3153 5.61829C15.3815 5.61829 14.4861 5.17782 13.8258 4.39377C13.1656 3.60972 12.7947 2.54632 12.7947 1.4375C12.7947 2.54632 12.4238 3.60972 11.7635 4.39377C11.1033 5.17782 10.2078 5.61829 9.27409 5.61829C8.34038 5.61829 7.4449 5.17782 6.78467 4.39377C6.12443 3.60972 5.75351 2.54632 5.75351 1.4375C5.75351 2.54632 5.38259 3.60972 4.72236 4.39377C4.06212 5.17782 3.16665 5.61829 2.23293 5.61829H1.35278" stroke="#0F1D1A" stroke-linecap="round" stroke-linejoin="round"/>
</svg>
