<svg width="25" height="26" viewBox="0 0 25 26" fill="none" xmlns="http://www.w3.org/2000/svg">
<path d="M24.0127 25.048H23.1325C22.1988 25.048 21.3034 24.6075 20.6431 23.8235C19.9829 23.0394 19.612 21.976 19.612 20.8672C19.612 21.976 19.241 23.0394 18.5808 23.8235C17.9206 24.6075 17.0251 25.048 16.0914 25.048C15.1577 25.048 14.2622 24.6075 13.602 23.8235C12.9417 23.0394 12.5708 21.976 12.5708 20.8672C12.5708 21.976 12.1999 23.0394 11.5396 23.8235C10.8794 24.6075 9.98393 25.048 9.05022 25.048C8.1165 25.048 7.22103 24.6075 6.56079 23.8235C5.90055 23.0394 5.52963 21.976 5.52963 20.8672C5.52963 21.976 5.15872 23.0394 4.49848 23.8235C3.83824 24.6075 2.94277 25.048 2.00905 25.048H1.12891" stroke="#0F1D1A" stroke-width="1.5" stroke-linecap="round" stroke-linejoin="round"/>
<path d="M24.0127 15.466H23.1325C22.1988 15.466 21.3034 15.0255 20.6431 14.2414C19.9829 13.4574 19.612 12.394 19.612 11.2852C19.612 12.394 19.241 13.4574 18.5808 14.2414C17.9206 15.0255 17.0251 15.466 16.0914 15.466C15.1577 15.466 14.2622 15.0255 13.602 14.2414C12.9417 13.4574 12.5708 12.394 12.5708 11.2852C12.5708 12.394 12.1999 13.4574 11.5396 14.2414C10.8794 15.0255 9.98393 15.466 9.05022 15.466C8.1165 15.466 7.22103 15.0255 6.56079 14.2414C5.90055 13.4574 5.52963 12.394 5.52963 11.2852C5.52963 12.394 5.15872 13.4574 4.49848 14.2414C3.83824 15.0255 2.94277 15.466 2.00905 15.466H1.12891" stroke="#0E9A8A" stroke-width="1.5" stroke-linecap="round" stroke-linejoin="round"/>
<path d="M24.0127 5.71009H23.1325C22.1988 5.71009 21.3034 5.26962 20.6431 4.48556C19.9829 3.70151 19.612 2.63811 19.612 1.5293C19.612 2.63811 19.241 3.70151 18.5808 4.48556C17.9206 5.26962 17.0251 5.71009 16.0914 5.71009C15.1577 5.71009 14.2622 5.26962 13.602 4.48556C12.9417 3.70151 12.5708 2.63811 12.5708 1.5293C12.5708 2.63811 12.1999 3.70151 11.5396 4.48556C10.8794 5.26962 9.98393 5.71009 9.05022 5.71009C8.1165 5.71009 7.22103 5.26962 6.56079 4.48556C5.90055 3.70151 5.52963 2.63811 5.52963 1.5293C5.52963 2.63811 5.15872 3.70151 4.49848 4.48556C3.83824 5.26962 2.94277 5.71009 2.00905 5.71009H1.12891" stroke="#0F1D1A" stroke-width="1.5" stroke-linecap="round" stroke-linejoin="round"/>
</svg>
