<svg width="16" height="14" viewBox="0 0 16 14" fill="none" xmlns="http://www.w3.org/2000/svg">
<path d="M15.105 12.8536H14.5625C13.987 12.8536 13.4351 12.625 13.0281 12.218C12.6212 11.8111 12.3925 11.2591 12.3925 10.6836C12.3925 11.2591 12.1639 11.8111 11.757 12.218C11.35 12.625 10.7981 12.8536 10.2225 12.8536C9.64701 12.8536 9.09506 12.625 8.6881 12.218C8.28115 11.8111 8.05252 11.2591 8.05252 10.6836C8.05252 11.2591 7.8239 11.8111 7.41694 12.218C7.00999 12.625 6.45804 12.8536 5.88252 12.8536C5.30699 12.8536 4.75504 12.625 4.34809 12.218C3.94113 11.8111 3.71251 11.2591 3.71251 10.6836C3.71251 11.2591 3.48388 11.8111 3.07693 12.218C2.66997 12.625 2.11802 12.8536 1.5425 12.8536H1" stroke="white" stroke-linecap="round" stroke-linejoin="round"/>
<path d="M15.105 7.87899H14.5625C13.987 7.87899 13.4351 7.65037 13.0281 7.24341C12.6212 6.83646 12.3925 6.28451 12.3925 5.70898C12.3925 6.28451 12.1639 6.83646 11.757 7.24341C11.35 7.65037 10.7981 7.87899 10.2225 7.87899C9.64701 7.87899 9.09506 7.65037 8.6881 7.24341C8.28115 6.83646 8.05252 6.28451 8.05252 5.70898C8.05252 6.28451 7.8239 6.83646 7.41694 7.24341C7.00999 7.65037 6.45804 7.87899 5.88252 7.87899C5.30699 7.87899 4.75504 7.65037 4.34809 7.24341C3.94113 6.83646 3.71251 6.28451 3.71251 5.70898C3.71251 6.28451 3.48388 6.83646 3.07693 7.24341C2.66997 7.65037 2.11802 7.87899 1.5425 7.87899H1" stroke="white" stroke-linecap="round" stroke-linejoin="round"/>
<path d="M15.105 2.81649H14.5625C13.987 2.81649 13.4351 2.58787 13.0281 2.18091C12.6212 1.77396 12.3925 1.22201 12.3925 0.646484C12.3925 1.22201 12.1639 1.77396 11.757 2.18091C11.35 2.58787 10.7981 2.81649 10.2225 2.81649C9.64701 2.81649 9.09506 2.58787 8.6881 2.18091C8.28115 1.77396 8.05252 1.22201 8.05252 0.646484C8.05252 1.22201 7.8239 1.77396 7.41694 2.18091C7.00999 2.58787 6.45804 2.81649 5.88252 2.81649C5.30699 2.81649 4.75504 2.58787 4.34809 2.18091C3.94113 1.77396 3.71251 1.22201 3.71251 0.646484C3.71251 1.22201 3.48388 1.77396 3.07693 2.18091C2.66997 2.58787 2.11802 2.81649 1.5425 2.81649H1" stroke="white" stroke-linecap="round" stroke-linejoin="round"/>
</svg>
