<svg width="40" height="40" viewBox="0 0 40 40" fill="none" xmlns="http://www.w3.org/2000/svg">
<path d="M35.7266 27.771V19.6186L30.6224 16.4961M25.1373 16.4961L23.568 17.4799" stroke="#DDDDDD" stroke-linecap="round" stroke-linejoin="round"/>
<path d="M30.165 16.709L27.8264 18.8226L25.3071 16.4395" stroke="#DDDDDD" stroke-linecap="round" stroke-linejoin="round"/>
<path d="M28.1861 18.5527L29.625 24.3106L28.5472 25.4941M27.7812 18.5527L26.8141 21.4317" stroke="#B7E1DC" stroke-linecap="round" stroke-linejoin="round"/>
<rect width="6.95273" height="9.14251" rx="2.63867" transform="matrix(-1 0 0 1 31.2119 7.18945)" stroke="#DDDDDD"/>
<path d="M30.9932 11.4762C29.8898 11.3441 27.6259 10.7031 27.3978 9.19594C27.1126 7.31199 26.8559 12.106 24.4879 11.7911" stroke="#DDDDDD" stroke-linecap="round" stroke-linejoin="round"/>
<path d="M3.12598 27.771V19.6186L8.2301 16.4961M13.7153 16.4961L15.2845 17.4799" stroke="#DDDDDD" stroke-linecap="round" stroke-linejoin="round"/>
<path d="M8.6875 16.709L11.0261 18.8226L13.5454 16.4395" stroke="#DDDDDD" stroke-linecap="round" stroke-linejoin="round"/>
<path d="M10.6674 18.5527L9.22852 24.3106L10.3063 25.4941M11.0724 18.5527L12.0394 21.4317" stroke="#B7E1DC" stroke-linecap="round" stroke-linejoin="round"/>
<rect x="7.64062" y="7.18945" width="6.95273" height="9.14251" rx="2.63867" stroke="#DDDDDD"/>
<path d="M7.85938 11.4762C8.96279 11.3441 11.2266 10.7031 11.4548 9.19594C11.7399 7.31199 11.9967 12.106 14.3646 11.7911" stroke="#DDDDDD" stroke-linecap="round" stroke-linejoin="round"/>
<path d="M1.74316 32.8105H38.2563" stroke="#0F1D1A" stroke-linecap="round" stroke-linejoin="round"/>
<path d="M11.4355 32.2944V24.1421L16.5397 21.0195M22.0248 21.0195L26.672 24.1421V32.2944" stroke="#0F1D1A" stroke-linecap="round" stroke-linejoin="round"/>
<path d="M16.9971 21.2304L19.3357 23.3441L21.855 20.9609" stroke="#0F1D1A" stroke-linecap="round" stroke-linejoin="round"/>
<path d="M18.977 23.0762L17.5381 28.834L19.3819 30.992L21.316 28.834L19.3819 23.0762" stroke="#0E9A8A" stroke-linecap="round" stroke-linejoin="round"/>
<rect x="15.9502" y="11.7129" width="6.95273" height="9.14251" rx="2.63867" stroke="#0F1D1A"/>
<path d="M16.1689 15.9977C17.2724 15.8656 19.5362 15.2246 19.7643 13.7174C20.0495 11.8335 20.3062 16.6275 22.6742 16.3126" stroke="#0F1D1A" stroke-linecap="round" stroke-linejoin="round"/>
<circle cx="19.2291" cy="23.5914" r="1.26332" fill="#0E9A8A"/>
</svg>
