<svg width="33" height="33" viewBox="0 0 33 33" fill="none" xmlns="http://www.w3.org/2000/svg">
<g clip-path="url(#clip0_6695_7611)">
<path d="M13.9149 20.4219V22.6463L9.94141 28.582L12.0918 31.5736L12.606 29.1429L16.3455 24.936L17.6985 21.4578" stroke="#0E9A8A" stroke-linecap="round" stroke-linejoin="round"/>
<path d="M12.2325 14.8402L14.6632 13.1097C14.4137 14.3719 13.9522 17.1299 14.1018 18.0648C14.2514 18.9997 15.8157 20.0748 16.5792 20.4955L20.6459 23.5806L22.7026 30.3117L26.3486 29.9845L24.2919 28.3017L23.2636 21.5706L19.9915 17.4571V12.0349L17.9815 9.27734H14.9432L10.1758 13.1097V19.0935H11.2505L12.2325 14.8402Z" stroke="black" stroke-linecap="round" stroke-linejoin="round"/>
<path d="M19.499 11.2949L21.0518 13.6328L25.3722 16.9361L25.0576 18.1107L21.7276 17.1597" stroke="black" stroke-linecap="round" stroke-linejoin="round"/>
<circle cx="17.2808" cy="5.31104" r="2.79541" stroke="#0E9A8A"/>
</g>
<defs>
<clipPath id="clip0_6695_7611">
<rect width="32" height="32" fill="white" transform="translate(0.09375 0.373047)"/>
</clipPath>
</defs>
</svg>
