<svg width="25" height="25" viewBox="0 0 25 25" fill="none" xmlns="http://www.w3.org/2000/svg">
<path d="M4.52344 4.25L4.52344 13.25" stroke="#0F1D1A" stroke-linecap="round"/>
<path d="M8.52344 4.25V14.25" stroke="#0F1D1A" stroke-linecap="round"/>
<path d="M8.52344 17.25V21.25" stroke="#0F1D1A" stroke-linecap="round"/>
<path d="M12.5234 4.25V7.25" stroke="#0F1D1A" stroke-linecap="round"/>
<path d="M12.5234 9.25V12.25" stroke="#0F1D1A" stroke-linecap="round"/>
<path d="M12.5234 14.25V17.25" stroke="#0F1D1A" stroke-linecap="round"/>
<path d="M20.5234 13.25V16.25" stroke="#0F1D1A" stroke-linecap="round"/>
<path d="M20.5234 4.25L20.5234 11.25" stroke="#0F1D1A" stroke-linecap="round"/>
<path d="M16.5234 7.25V17.25" stroke="#0F1D1A" stroke-linecap="round"/>
<path d="M16.5234 4.25L16.5234 5.25" stroke="#0F1D1A" stroke-linecap="round"/>
<path d="M20.5234 18.25V18.75" stroke="#0F1D1A" stroke-linecap="round"/>
<path d="M4.52344 15.25L4.52344 16.25" stroke="#0F1D1A" stroke-linecap="round"/>
<path d="M0.704102 3.09053C1.726 0.754766 3.81842 1.2413 6.68947 1.2413C8.98631 1.2413 11.2799 1.2413 12.1396 1.2413" stroke="#0F1D1A" stroke-linecap="round"/>
<path d="M24.1177 3.09053C23.0958 0.754766 21.0034 1.2413 18.1323 1.2413C15.8355 1.2413 10.5795 1.2413 9.71976 1.2413" stroke="#0F1D1A" stroke-linecap="round"/>
<path d="M23.4072 24.4308H22.5271C21.5934 24.4308 20.6979 23.9903 20.0377 23.2063C19.3774 22.4222 19.0065 21.3588 19.0065 20.25C19.0065 21.3588 18.6356 22.4222 17.9753 23.2063C17.3151 23.9903 16.4196 24.4308 15.4859 24.4308C14.5522 24.4308 13.6567 23.9903 12.9965 23.2063C12.3362 22.4222 11.9653 21.3588 11.9653 20.25C11.9653 21.3588 11.5944 22.4222 10.9342 23.2063C10.2739 23.9903 9.37847 24.4308 8.44475 24.4308C7.51103 24.4308 6.61556 23.9903 5.95532 23.2063C5.29508 22.4222 4.92417 21.3588 4.92417 20.25C4.92417 21.3588 4.55325 22.4222 3.89301 23.2063C3.23277 23.9903 2.3373 24.4308 1.40358 24.4308H0.523438" stroke="#0E9A8A" stroke-linecap="round" stroke-linejoin="round"/>
</svg>
