<svg width="26" height="26" viewBox="0 0 26 26" fill="none" xmlns="http://www.w3.org/2000/svg">
<path d="M5.53467 4.72461L5.53467 13.7246" stroke="#0F1D1A" stroke-width="1.5" stroke-linecap="round"/>
<path d="M9.53467 4.72461V14.7246" stroke="#0F1D1A" stroke-width="1.5" stroke-linecap="round"/>
<path d="M9.53467 17.7246V21.7246" stroke="#0F1D1A" stroke-width="1.5" stroke-linecap="round"/>
<path d="M13.5347 4.72461V7.72461" stroke="#0F1D1A" stroke-width="1.5" stroke-linecap="round"/>
<path d="M13.5347 9.72461V12.7246" stroke="#0F1D1A" stroke-width="1.5" stroke-linecap="round"/>
<path d="M13.5347 14.7246V17.7246" stroke="#0F1D1A" stroke-width="1.5" stroke-linecap="round"/>
<path d="M21.5347 13.7246V16.7246" stroke="#0F1D1A" stroke-width="1.5" stroke-linecap="round"/>
<path d="M21.5347 4.72461L21.5347 11.7246" stroke="#0F1D1A" stroke-width="1.5" stroke-linecap="round"/>
<path d="M17.5347 7.72461V17.7246" stroke="#0F1D1A" stroke-width="1.5" stroke-linecap="round"/>
<path d="M17.5347 4.72461L17.5347 5.72461" stroke="#0F1D1A" stroke-width="1.5" stroke-linecap="round"/>
<path d="M21.5347 18.7246V19.2246" stroke="#0F1D1A" stroke-width="1.5" stroke-linecap="round"/>
<path d="M5.53467 15.7246L5.53467 16.7246" stroke="#0F1D1A" stroke-width="1.5" stroke-linecap="round"/>
<path d="M1.71533 3.56514C2.73723 1.22938 4.82965 1.7159 7.7007 1.7159C9.99754 1.7159 12.2911 1.7159 13.1508 1.7159" stroke="#0F1D1A" stroke-width="1.5" stroke-linecap="round"/>
<path d="M25.1289 3.56514C24.107 1.22938 22.0146 1.7159 19.1435 1.7159C16.8467 1.7159 11.5907 1.7159 10.731 1.7159" stroke="#0F1D1A" stroke-width="1.5" stroke-linecap="round"/>
<path d="M24.4185 24.9054H23.5383C22.6046 24.9054 21.7091 24.4649 21.0489 23.6809C20.3886 22.8968 20.0177 21.8334 20.0177 20.7246C20.0177 21.8334 19.6468 22.8968 18.9866 23.6809C18.3263 24.4649 17.4309 24.9054 16.4971 24.9054C15.5634 24.9054 14.668 24.4649 14.0077 23.6809C13.3475 22.8968 12.9766 21.8334 12.9766 20.7246C12.9766 21.8334 12.6056 22.8968 11.9454 23.6809C11.2852 24.4649 10.3897 24.9054 9.45598 24.9054C8.52226 24.9054 7.62679 24.4649 6.96655 23.6809C6.30631 22.8968 5.9354 21.8334 5.9354 20.7246C5.9354 21.8334 5.56448 22.8968 4.90424 23.6809C4.244 24.4649 3.34853 24.9054 2.41481 24.9054H1.53467" stroke="#0E9A8A" stroke-width="1.5" stroke-linecap="round" stroke-linejoin="round"/>
</svg>
