<svg width="25" height="25" viewBox="0 0 25 25" fill="none" xmlns="http://www.w3.org/2000/svg">
<path d="M4.52344 4.18555L4.52344 13.1855" stroke="#0E9A8A" stroke-linecap="round"/>
<path d="M8.52344 4.18555V14.1855" stroke="#0E9A8A" stroke-linecap="round"/>
<path d="M8.52344 17.1855V21.1855" stroke="#0E9A8A" stroke-linecap="round"/>
<path d="M12.5234 4.18555V7.18555" stroke="#0E9A8A" stroke-linecap="round"/>
<path d="M12.5234 9.18555V12.1855" stroke="#0E9A8A" stroke-linecap="round"/>
<path d="M12.5234 14.1855V17.1855" stroke="#0E9A8A" stroke-linecap="round"/>
<path d="M20.5234 13.1855V16.1855" stroke="#0E9A8A" stroke-linecap="round"/>
<path d="M20.5234 4.18555L20.5234 11.1855" stroke="#0E9A8A" stroke-linecap="round"/>
<path d="M16.5234 7.18555V17.1855" stroke="#0E9A8A" stroke-linecap="round"/>
<path d="M16.5234 4.18555L16.5234 5.18555" stroke="#0E9A8A" stroke-linecap="round"/>
<path d="M20.5234 18.1855V18.6855" stroke="#0E9A8A" stroke-linecap="round"/>
<path d="M4.52344 15.1855L4.52344 16.1855" stroke="#0E9A8A" stroke-linecap="round"/>
<path d="M0.704102 3.02608C1.726 0.690313 3.81842 1.17684 6.68947 1.17684C8.98631 1.17684 11.2799 1.17684 12.1396 1.17684" stroke="#0E9A8A" stroke-linecap="round"/>
<path d="M24.1177 3.02608C23.0958 0.690313 21.0034 1.17684 18.1323 1.17684C15.8355 1.17684 10.5795 1.17684 9.71976 1.17684" stroke="#0E9A8A" stroke-linecap="round"/>
<path d="M23.4072 24.3663H22.5271C21.5934 24.3663 20.6979 23.9259 20.0377 23.1418C19.3774 22.3578 19.0065 21.2944 19.0065 20.1855C19.0065 21.2944 18.6356 22.3578 17.9753 23.1418C17.3151 23.9259 16.4196 24.3663 15.4859 24.3663C14.5522 24.3663 13.6567 23.9259 12.9965 23.1418C12.3362 22.3578 11.9653 21.2944 11.9653 20.1855C11.9653 21.2944 11.5944 22.3578 10.9342 23.1418C10.2739 23.9259 9.37847 24.3663 8.44475 24.3663C7.51103 24.3663 6.61556 23.9259 5.95532 23.1418C5.29508 22.3578 4.92417 21.2944 4.92417 20.1855C4.92417 21.2944 4.55325 22.3578 3.89301 23.1418C3.23277 23.9259 2.3373 24.3663 1.40358 24.3663H0.523438" stroke="#0E9A8A" stroke-linecap="round" stroke-linejoin="round"/>
</svg>
