<svg width="27" height="26" viewBox="0 0 27 26" fill="none" xmlns="http://www.w3.org/2000/svg">
<path d="M5.70288 4.18555L5.70288 13.1855" stroke="#0E9A8A" stroke-width="1.5" stroke-linecap="round"/>
<path d="M9.70288 4.18555V14.1855" stroke="#0E9A8A" stroke-width="1.5" stroke-linecap="round"/>
<path d="M9.70288 17.1855V21.1855" stroke="#0E9A8A" stroke-width="1.5" stroke-linecap="round"/>
<path d="M13.7029 4.18555V7.18555" stroke="#0E9A8A" stroke-width="1.5" stroke-linecap="round"/>
<path d="M13.7029 9.18555V12.1855" stroke="#0E9A8A" stroke-width="1.5" stroke-linecap="round"/>
<path d="M13.7029 14.1855V17.1855" stroke="#0E9A8A" stroke-width="1.5" stroke-linecap="round"/>
<path d="M21.7029 13.1855V16.1855" stroke="#0E9A8A" stroke-width="1.5" stroke-linecap="round"/>
<path d="M21.7029 4.18555L21.7029 11.1855" stroke="#0E9A8A" stroke-width="1.5" stroke-linecap="round"/>
<path d="M17.7029 7.18555V17.1855" stroke="#0E9A8A" stroke-width="1.5" stroke-linecap="round"/>
<path d="M17.7029 4.18555L17.7029 5.18555" stroke="#0E9A8A" stroke-width="1.5" stroke-linecap="round"/>
<path d="M21.7029 18.1855V18.6855" stroke="#0E9A8A" stroke-width="1.5" stroke-linecap="round"/>
<path d="M5.70288 15.1855L5.70288 16.1855" stroke="#0E9A8A" stroke-width="1.5" stroke-linecap="round"/>
<path d="M1.88354 3.02608C2.90544 0.690313 4.99787 1.17684 7.86891 1.17684C10.1657 1.17684 12.4593 1.17684 13.319 1.17684" stroke="#0E9A8A" stroke-width="1.5" stroke-linecap="round"/>
<path d="M25.2971 3.02608C24.2752 0.690313 22.1828 1.17684 19.3118 1.17684C17.0149 1.17684 11.7589 1.17684 10.8992 1.17684" stroke="#0E9A8A" stroke-width="1.5" stroke-linecap="round"/>
<path d="M24.5867 24.3663H23.7065C22.7728 24.3663 21.8773 23.9259 21.2171 23.1418C20.5569 22.3578 20.1859 21.2944 20.1859 20.1855C20.1859 21.2944 19.815 22.3578 19.1548 23.1418C18.4945 23.9259 17.5991 24.3663 16.6654 24.3663C15.7316 24.3663 14.8362 23.9259 14.1759 23.1418C13.5157 22.3578 13.1448 21.2944 13.1448 20.1855C13.1448 21.2944 12.7739 22.3578 12.1136 23.1418C11.4534 23.9259 10.5579 24.3663 9.62419 24.3663C8.69048 24.3663 7.795 23.9259 7.13476 23.1418C6.47453 22.3578 6.10361 21.2944 6.10361 20.1855C6.10361 21.2944 5.73269 22.3578 5.07245 23.1418C4.41222 23.9259 3.51674 24.3663 2.58303 24.3663H1.70288" stroke="#0E9A8A" stroke-width="1.5" stroke-linecap="round" stroke-linejoin="round"/>
</svg>
